<svg width="16" height="16" viewBox="0 0 16 16" fill="none" xmlns="http://www.w3.org/2000/svg">
<path d="M14.0858 11.2572C14.0128 11.3289 13.9146 11.3685 13.813 11.3685C13.7115 11.3685 13.6133 11.3289 13.5402 11.2572C13.467 11.1853 13.4251 11.0869 13.4251 10.9835C13.4251 10.8801 13.467 10.7817 13.5402 10.7098C13.6133 10.6381 13.7115 10.5985 13.813 10.5985C13.9146 10.5985 14.0128 10.6381 14.0858 10.7098M14.0858 11.2572V10.7098M14.0858 11.2572C14.1591 11.1853 14.2009 11.0869 14.2009 10.9835C14.2009 10.8801 14.1591 10.7817 14.0858 10.7098M14.0858 11.2572V10.7098M15.0745 9.44727C15.0825 9.41272 15.082 9.37757 15.0742 9.34437C15.3344 8.11633 15.2598 6.84181 14.857 5.65009C14.4416 4.42099 13.6928 3.32688 12.6919 2.48513C11.6909 1.6434 10.4756 1.0858 9.17669 0.871814C7.8778 0.657829 6.544 0.795467 5.31862 1.27006L5.31744 1.27053C4.14149 1.73358 3.1087 2.49041 2.32167 3.46649C1.53462 4.4426 1.02074 5.60404 0.831382 6.83581L0.831298 6.8358L0.830525 6.84194C0.66419 8.16375 0.864834 9.50501 1.41102 10.7238C1.95592 11.9397 2.82437 12.9883 3.9244 13.7596C5.19347 14.8127 6.8331 15.3328 8.4888 15.2081C8.49719 15.2075 8.50553 15.2064 8.51379 15.2048C10.1991 14.8866 11.7655 14.1263 13.0466 13.004C13.1336 12.9333 13.1861 12.8319 13.183 12.7182C13.18 12.611 13.1286 12.5226 13.0689 12.4632C12.9531 12.3479 12.7315 12.2775 12.5396 12.4207C12.5356 12.4237 12.5318 12.4267 12.5281 12.4299C11.4943 13.3113 10.2793 13.9643 8.96527 14.3442C8.31512 14.4894 7.64174 14.5042 6.98556 14.3877C6.32717 14.2707 5.69996 14.024 5.14181 13.6626C5.13711 13.6596 5.13229 13.6567 5.12738 13.654C4.04656 13.0632 3.14534 12.2017 2.51529 11.1579C1.88579 10.115 1.54938 8.92734 1.53998 7.71582C1.56248 6.59706 1.88776 5.50403 2.48284 4.54885C3.07849 3.59276 3.92308 2.80911 4.93021 2.27887C5.93736 1.74862 7.07048 1.49107 8.21304 1.53298C9.35556 1.57488 10.4658 1.91468 11.4297 2.5171C12.5526 3.22099 13.4298 4.24351 13.9451 5.44798C14.4604 6.65244 14.5897 7.98215 14.3159 9.26028L14.3159 9.26027L14.3149 9.26523C14.2678 9.51175 14.4429 9.6762 14.6044 9.72034C14.6866 9.74279 14.7857 9.74254 14.878 9.69816C14.977 9.65056 15.0483 9.56112 15.0745 9.44727ZM7.44472 4.70959L7.44462 4.70958L7.44419 4.71615L7.21222 8.22053C7.19841 8.27296 7.19554 8.33173 7.2107 8.39241C7.23113 8.47423 7.2798 8.54135 7.34268 8.59073C7.35569 8.60095 7.36959 8.60957 7.38412 8.61658C8.38106 9.39234 9.33203 10.2234 10.2324 11.1056C10.3142 11.1883 10.4201 11.2258 10.5261 11.2176C10.6263 11.2098 10.7122 11.1627 10.773 11.103C10.8337 11.0434 10.8833 10.9576 10.8915 10.8557C10.9002 10.7472 10.86 10.6409 10.7757 10.5605C9.89658 9.69639 8.96841 8.88185 7.99567 8.12077L8.21905 4.74604C8.21938 4.74107 8.21955 4.73608 8.21955 4.7311C8.21955 4.61903 8.17532 4.51783 8.09514 4.44713C8.01919 4.38016 7.92492 4.35248 7.83889 4.35248C7.66695 4.35248 7.46757 4.47028 7.44472 4.70959Z" fill="#979797" stroke="#979797" stroke-width="0.452541" stroke-linejoin="round"/>
</svg>
