<svg width="22" height="22" viewBox="0 0 22 22" fill="none" xmlns="http://www.w3.org/2000/svg">
<path d="M21.0119 13.0458C21.0214 13.0045 21.019 12.9623 21.0061 12.9237C21.3802 11.1792 21.2763 9.36755 20.7039 7.67404C20.1161 5.93516 19.0567 4.38701 17.6402 3.19583C16.2238 2.00467 14.5037 1.21544 12.6652 0.912561C10.8267 0.609679 8.93883 0.804508 7.20449 1.47623L7.20448 1.47623L7.20331 1.4767C5.53887 2.13209 4.07727 3.20323 2.96359 4.58443C1.84989 5.96565 1.12286 7.60896 0.854964 9.35161L0.854881 9.3516L0.854108 9.35774C0.618712 11.2284 0.902647 13.1265 1.67567 14.8515C2.4474 16.5735 3.67781 18.0587 5.23663 19.1509C7.03049 20.6408 9.34924 21.3769 11.691 21.2006C11.6994 21.1999 11.7077 21.1988 11.716 21.1973C14.1072 20.7458 16.3297 19.6668 18.1469 18.0745C18.2512 17.9902 18.3108 17.8726 18.3073 17.7429C18.3039 17.62 18.2447 17.5162 18.1729 17.4447C18.0329 17.3053 17.7697 17.224 17.5431 17.3931C17.5392 17.396 17.5353 17.3991 17.5316 17.4022C16.0435 18.6711 14.2944 19.6107 12.403 20.1572C11.4608 20.368 10.4849 20.3896 9.53384 20.2207C8.58061 20.0514 7.67244 19.6942 6.86417 19.1709C6.85947 19.1678 6.85465 19.165 6.84973 19.1623C5.29082 18.3101 3.99071 17.0674 3.08168 15.5614C2.1732 14.0564 1.68775 12.3421 1.67442 10.5934C1.70668 8.97718 2.17649 7.39818 3.03604 6.0185C3.89614 4.63792 5.11559 3.50656 6.56941 2.74115C8.02326 1.97572 9.65881 1.60401 11.3079 1.66449C12.9569 1.72497 14.5596 2.21542 15.951 3.08508C17.5718 4.10103 18.8381 5.57706 19.5822 7.31611C20.3262 9.05515 20.5129 10.9752 20.1175 12.8207L20.1175 12.8207L20.1165 12.8257C20.0611 13.1157 20.2653 13.3108 20.4604 13.3641C20.5594 13.3911 20.6765 13.3901 20.7837 13.3385C20.8976 13.2838 20.9809 13.1807 21.0119 13.0458ZM19.6261 15.5839L19.4676 15.4224L19.6261 15.5839C19.7123 15.4993 19.7615 15.3836 19.7615 15.2621C19.7615 15.1407 19.7123 15.025 19.6261 14.9404C19.5401 14.8559 19.4242 14.8092 19.3043 14.8092C19.1844 14.8092 19.0685 14.8559 18.9825 14.9404C18.8963 15.025 18.8471 15.1407 18.8471 15.2621C18.8471 15.3836 18.8963 15.4993 18.9825 15.5839C19.0686 15.6684 19.1844 15.7151 19.3043 15.7151C19.4242 15.7151 19.5401 15.6684 19.6261 15.5839ZM10.3033 6.30863L10.3032 6.30862L10.3027 6.3152L9.97072 11.3312C9.9527 11.3941 9.94841 11.4646 9.96651 11.5371C9.98977 11.6302 10.0455 11.7085 10.1209 11.7676C10.1364 11.7798 10.1532 11.7898 10.1708 11.7974C11.6014 12.91 12.9659 14.1021 14.2575 15.3679C14.3546 15.4663 14.4782 15.5094 14.6012 15.4999C14.7183 15.4908 14.8204 15.4354 14.8935 15.3636C14.9666 15.292 15.0245 15.1902 15.034 15.0717C15.0441 14.9466 14.9982 14.8229 14.8979 14.7275C13.6323 13.4835 12.2953 12.3115 10.8937 11.2173L11.2162 6.34509C11.2165 6.34011 11.2167 6.33513 11.2167 6.33014C11.2167 6.19631 11.1643 6.07879 11.0718 5.9972C10.9835 5.91935 10.8727 5.88624 10.7698 5.88624C10.5643 5.88624 10.3303 6.0258 10.3033 6.30863Z" fill="white" stroke="white" stroke-width="0.452541" stroke-linejoin="round"/>
</svg>
