<svg width="533" height="388" viewBox="0 0 533 388" fill="none" xmlns="http://www.w3.org/2000/svg">
<path fill-rule="evenodd" clip-rule="evenodd" d="M531.522 146.698C524.932 195.833 517.493 221.787 474.075 273.244C430.658 324.7 231.973 358.55 158.52 358.55C85.0669 358.55 -5.45573 301.91 0.25742 236.283C5.97057 170.656 35.7769 117.017 107.12 110.414C180.029 103.666 244.072 134.915 315.651 118.156C377.535 103.666 396.469 48.4377 438.972 31.0134C524.932 -4.22602 536.005 113.272 531.522 146.698Z" fill="#5EF2E0"/>
<path d="M487.298 170.696C484.87 174.812 454.127 195.641 435.478 198.724C431.87 199.32 427.929 199.525 424.794 197.641C422.943 196.528 421.563 194.792 420.252 193.074C417.255 189.147 414.396 185.115 411.682 180.988C410.256 178.819 408.841 176.555 408.357 174.005C407.074 167.252 412.517 161.186 417.897 156.907C430.264 147.071 444.743 139.906 460.065 136.04C462.777 135.356 465.652 134.776 468.339 135.554C472.7 136.815 475.307 141.228 476.971 145.452C478.635 149.675 479.933 154.295 483.259 157.385C484.018 158.091 489.726 166.58 487.298 170.696Z" fill="white"/>
<path fill-rule="evenodd" clip-rule="evenodd" d="M322.106 350.142C292.269 355.245 306.49 333.559 310.605 306.417C317.366 261.817 325.703 194.04 325.703 194.04C325.703 194.04 331.14 297.316 331.14 322.463C331.14 347.61 325.702 349.527 322.106 350.142Z" fill="white"/>
<path d="M290.226 325.57C290.987 332.752 291.79 340.086 294.842 346.632C293.177 331.81 291.512 316.988 289.847 302.165C289.641 300.335 289.702 298.005 291.386 297.259C292.81 313.996 294.935 330.673 297.751 347.233C298.085 349.199 295.132 350.322 293.474 349.215C291.815 348.107 291.285 345.951 290.908 343.993C288.159 329.723 286.648 315.216 286.397 300.686C282.898 301.375 280.445 304.767 279.737 308.262C279.029 311.757 279.711 315.367 280.393 318.867C282.587 330.134 284.782 341.401 286.976 352.668C288.002 357.938 289.028 363.383 287.896 368.631C283.541 348.748 280.04 328.678 277.405 308.495C243.99 328.928 200.934 332.728 164.456 318.463C156.489 315.347 148.577 311.219 143.315 304.474C139.17 299.161 136.958 292.565 135.799 285.926C131.684 262.35 140.117 238.302 151.564 217.284C155.907 209.309 160.854 201.003 160.503 191.929C160.383 188.805 159.709 185.346 161.533 182.806C161.792 183.277 149.59 95.997 154.485 76.6911C166.269 30.2134 204.548 23.919 229.057 24.4923C245.502 24.8769 349.739 45.5922 364.799 73.7627C384.593 110.787 380.39 141.915 376.875 162.44C375.828 168.552 325.717 193.59 325.703 193.716C322.839 220.349 303.613 278.38 287.489 299.77C288.401 308.37 289.314 316.97 290.226 325.57Z" fill="white"/>
<path fill-rule="evenodd" clip-rule="evenodd" d="M49.6204 217.205C40.2228 213.453 29.0236 214.566 20.551 220.092C19.7307 220.627 18.5514 220.031 18.1454 219.141C17.7393 218.251 17.8912 217.215 18.0989 216.259C20.8049 203.807 31.5847 194.278 43.5728 189.9C55.5609 185.521 68.6739 185.509 81.4174 186.257C82.6818 186.331 84.0035 186.43 85.0821 187.093C86.1607 187.756 86.8864 189.173 86.3488 190.318C81.3358 200.993 77.5596 212.246 75.1194 223.781C74.7237 225.651 72.7855 226.892 70.8767 227.048C68.968 227.204 67.0976 226.5 65.3654 225.684C59.9668 223.143 55.1623 219.417 49.6204 217.205Z" fill="white"/>
<path fill-rule="evenodd" clip-rule="evenodd" d="M338.477 29.2187C338.944 22.0752 338.405 14.8668 336.882 7.87203L336.85 7.72293C336.592 6.54021 336.326 5.32365 336.564 4.13998C337.091 1.52215 339.998 -0.0535656 342.668 0.00139198C345.338 0.0563496 347.811 1.33077 350.173 2.57534C361.503 8.54388 373.038 14.6631 381.958 23.8508C382.238 31.289 380.485 38.6294 378.754 45.8756L378.592 46.5565C371.368 76.8428 365.452 107.441 360.867 138.238C360.427 141.19 359.594 144.672 356.794 145.705C354.786 146.447 352.451 145.499 351.024 143.903C349.597 142.307 348.915 140.188 348.439 138.1C347.266 132.951 347.124 127.568 348.026 122.363C348.578 119.181 349.51 116.085 350.443 112.989L350.443 112.988L350.443 112.988L350.443 112.988L350.443 112.987L350.444 112.987L350.444 112.987L350.444 112.986L350.444 112.986C351.281 110.207 352.118 107.427 352.68 104.583C353.243 101.738 353.526 98.8464 353.801 95.9597C355.263 80.6095 356.504 65.2381 357.522 49.8521C357.665 47.6779 357.796 45.4353 357.084 43.376C355.817 39.7133 352.127 37.3984 348.4 36.3369C347.758 36.154 347.105 35.9984 346.453 35.8428C344.934 35.4807 343.416 35.1189 342.031 34.413C340.05 33.404 338.332 31.4367 338.477 29.2187ZM345.4 28.6316C350.669 29.7434 355.818 31.4222 360.729 33.6298C361.718 34.0742 362.758 34.5946 363.292 35.538C363.729 36.3085 363.754 37.2365 363.767 38.1219C363.921 48.5211 363.954 58.9478 362.853 69.2896C362.193 75.4819 361.13 81.6202 360.066 87.7579L360.066 87.7591L360.065 87.7626C359.729 89.7043 359.392 91.646 359.069 93.5893C357.466 103.211 356.177 112.885 355.202 122.591C354.495 129.633 353.978 136.912 356.168 143.642C357.292 143.437 357.725 142.083 357.938 140.961L378.182 34.2579C378.672 31.6726 379.162 28.9997 378.584 26.4325C377.572 21.938 373.583 18.8129 369.737 16.2772C362.333 11.3957 354.451 7.23826 346.242 3.88329C345.559 12.1125 345.278 20.375 345.4 28.6316ZM355.811 98.7091C359.517 79.6801 361.192 60.2559 360.797 40.8733C360.767 39.4093 360.688 37.8362 359.793 36.6776C359.136 35.8286 358.134 35.3314 357.155 34.8928C353.477 33.2456 349.611 32.0199 345.657 31.2474C344.512 31.0238 342.829 31.2661 342.879 32.4313L357.094 38.3051C357.928 38.6496 358.816 39.0393 359.287 39.8086C359.749 40.5632 359.704 41.511 359.644 42.3938L355.811 98.7091ZM342.583 2.00102C341.411 1.22417 339.718 2.02497 339.065 3.2702C338.413 4.51542 338.512 6.00613 338.66 7.40427C338.877 9.45529 339.163 11.5074 339.448 13.5598L339.449 13.5607C340.242 19.2558 341.035 24.9531 340.361 30.6363C341.436 31.0052 342.636 30.2475 343.157 29.2377C343.679 28.2278 343.692 27.0416 343.694 25.905L343.73 5.4107C343.732 4.15815 343.627 2.69312 342.583 2.00102ZM353.108 143.18C352.463 138.115 352.294 132.99 352.604 127.894C352.77 125.168 353.072 122.453 353.374 119.738C353.774 116.148 354.174 112.558 354.258 108.949C351.305 117.736 350.19 127.135 351.006 136.369C351.218 138.771 351.611 141.29 353.108 143.18ZM354.733 103.758C355.208 103.545 355.408 102.878 355.127 102.439C354.645 102.677 354.44 103.35 354.708 103.817L354.733 103.758ZM350.319 59.749C326.824 45.2595 300.258 36.5782 273.69 29.0873C265.197 26.6927 256.634 24.3981 247.865 23.4157C221.882 20.5048 195.541 29.4697 173.936 44.1946C165.271 50.1001 156.911 57.3642 153.168 67.159C150.39 74.4263 150.409 82.427 150.677 90.2024C151.601 117.019 155.042 143.678 158.479 170.29C161.166 169.805 161.431 166.088 161.042 163.386C157.468 138.569 155.465 113.525 155.047 88.4557C154.93 81.4258 154.966 74.2187 157.399 67.6222C161.803 55.6811 173.161 47.8716 184.307 41.7257C198.344 33.9848 213.604 27.4777 229.631 27.1323C249.044 26.7139 267.445 35.3253 284.404 44.783C293.859 50.0556 303.445 55.9436 309.46 64.9444C314.921 73.1174 316.906 83.0778 318.339 92.8026C322.887 123.667 323.054 154.989 323.212 186.187C323.218 187.449 323.141 188.895 322.152 189.68C321.476 190.216 320.553 190.283 319.691 190.328L288.019 191.977C302.778 196.22 319.15 194.546 332.745 187.404L367.936 168.917C371.221 167.191 374.611 165.379 376.875 162.44C379.991 158.394 380.437 152.952 380.584 147.848C381.127 128.998 379.242 110.079 374.99 91.7059C376.464 111.581 376.668 131.55 375.602 151.451C375.42 154.849 375.147 158.415 373.299 161.273C371.325 164.326 367.894 166.054 364.624 167.643L326.645 186.103C328.216 156.593 326.997 126.936 323.009 97.6555C321.667 87.8072 319.956 77.8212 315.449 68.9625C304.798 48.0274 281.224 37.6715 259.436 28.8964C292.01 38.4264 324.956 48.1139 354.262 65.2341C354.643 62.8689 352.358 61.0065 350.319 59.749ZM471.694 149.827C473.383 154.179 475.757 158.818 480.12 160.476C481.154 160.556 481.771 159.186 481.432 158.206C481.149 157.388 480.483 156.792 479.828 156.206L479.828 156.206C479.699 156.091 479.57 155.976 479.445 155.86C476.669 153.28 475.306 149.634 473.963 146.042C473.697 145.332 473.433 144.624 473.158 143.926C471.494 139.702 468.887 135.29 464.526 134.028C461.839 133.251 458.963 133.831 456.251 134.515C440.93 138.38 426.45 145.546 414.084 155.382C408.704 159.661 403.26 165.726 404.544 172.479C405.028 175.03 406.442 177.294 407.869 179.463C410.583 183.59 413.442 187.622 416.439 191.549C417.749 193.266 419.129 195.002 420.981 196.115C424.116 198 428.056 197.795 431.665 197.198C450.314 194.116 466.275 182.526 481.463 171.274C482.253 170.689 483.075 170.065 483.485 169.171C483.894 168.276 483.72 167.032 482.851 166.57C481.855 166.041 480.68 166.772 479.792 167.467C465.659 178.532 450.562 189.345 433.038 193.232C429.716 193.969 426.054 194.403 423.065 192.777C420.829 191.56 419.319 189.372 417.893 187.262L409.053 174.182C408.308 173.08 407.536 171.896 407.509 170.567C407.481 169.237 408.556 167.799 409.874 167.971C422.266 169.582 434.716 170.741 447.193 171.443C448.186 171.499 449.225 171.544 450.13 171.13C451.295 170.598 452.006 169.419 452.628 168.298C457.91 158.777 461.944 148.564 464.596 138.003C468.122 140.531 469.767 144.813 471.336 148.898C471.456 149.209 471.575 149.519 471.694 149.827ZM460.788 137.167C458.427 145.999 454.935 154.528 450.423 162.48C449.667 163.812 448.827 165.185 447.504 165.96C445.822 166.945 443.728 166.759 441.79 166.543L410.923 163.099C416.044 156.331 423.652 151.939 431.254 148.165C438.449 144.593 445.836 141.407 453.372 138.624C455.757 137.743 458.26 136.89 460.788 137.167ZM290.226 325.57C290.987 332.752 291.79 340.086 294.842 346.632L289.847 302.165C289.641 300.335 289.702 298.005 291.386 297.259C292.81 313.996 294.935 330.673 297.751 347.233C298.085 349.199 295.132 350.322 293.474 349.215C291.815 348.107 291.285 345.951 290.908 343.993C288.159 329.723 286.648 315.216 286.397 300.686C282.898 301.375 280.445 304.767 279.737 308.262C279.029 311.757 279.711 315.367 280.393 318.867L286.976 352.668C288.002 357.938 289.028 363.383 287.896 368.631C283.541 348.748 280.04 328.678 277.405 308.495C243.99 328.928 200.934 332.728 164.456 318.463C156.489 315.347 148.577 311.219 143.315 304.474C139.17 299.161 136.958 292.565 135.799 285.926C131.684 262.35 140.117 238.302 151.564 217.284C151.862 216.736 152.163 216.187 152.465 215.636C156.562 208.165 160.83 200.38 160.503 191.929C160.482 191.37 160.443 190.801 160.403 190.228C160.222 187.597 160.035 184.892 161.533 182.806C163.543 186.462 164.308 190.788 163.675 194.912C198.269 193.423 232.914 193.123 267.528 194.013C267.932 195.604 265.626 196.343 263.985 196.319C231.682 195.837 199.364 196.387 167.096 197.969C166.074 198.019 165.002 198.085 164.135 198.629C163.224 199.202 162.693 200.206 162.203 201.164C153.045 219.083 143.857 237.263 139.431 256.893C137.154 266.988 136.282 278.037 140.948 287.274C142.718 290.778 145.221 293.873 148.016 296.63C163.021 311.43 185.49 315.968 206.563 315.613C220.012 315.387 233.432 313.454 246.398 309.874C260.145 306.079 273.854 300.098 283.237 289.359C288.747 283.052 292.492 275.415 295.771 267.71C302.033 252.997 306.837 237.664 310.088 222.008C312.123 222.436 312.152 225.315 311.682 227.341C305.87 252.414 299.115 279.14 279.972 296.345C262.682 311.883 238.319 316.702 215.109 318.002C201.703 318.753 188.084 318.518 175.099 315.101C162.113 311.683 149.714 304.846 141.47 294.247C143.875 303.414 152.019 309.957 160.498 314.191C182.762 325.309 209.052 324.721 233.635 320.857C250.011 318.282 266.82 314.058 279.564 303.457C290.457 294.395 297.4 281.454 302.625 268.283C308.409 253.705 312.421 238.424 314.546 222.884C315.869 222.048 316.849 224.386 316.682 225.942C313.817 252.574 303.613 278.38 287.489 299.77L290.226 325.57ZM274.743 371.113C273.322 368.714 272.408 366.017 272.076 363.249L270.035 370.165L264.884 350.522C264.485 348.998 263.512 347.091 261.971 347.418C260.473 347.737 260.305 349.793 260.528 351.308C261.65 358.928 263.791 366.398 266.874 373.457L261.396 368.651C261.13 370.939 261.732 373.318 263.055 375.203C260.202 373.102 256.375 372.386 252.956 373.313C255.399 376.709 258.717 379.469 262.5 381.255L257.872 374.795C261.613 376.954 265.533 378.805 269.578 380.321L265.656 375.404L270.502 376.747C266.794 368.312 263.017 359.555 263.106 350.341C264.51 357.837 266.564 365.21 269.239 372.351C269.692 373.561 270.196 374.812 271.162 375.671C272.127 376.529 273.696 376.853 274.708 376.049C275.494 375.424 275.724 374.346 275.902 373.357L278.085 361.254L280.482 376.264C282.299 371.673 288.21 370.523 293.148 370.492C299.667 370.451 306.236 371.169 312.787 371.886H312.787H312.787H312.788H312.788H312.788H312.788H312.788H312.789C324.599 373.177 336.354 374.463 347.67 371.286C347.338 373.036 346.757 374.738 345.949 376.325C355.08 374.996 364.32 374.412 373.545 374.583C377.443 374.654 381.351 374.86 385.26 375.065H385.261C395.592 375.607 405.924 376.149 416.046 374.231L348.863 373.64C350.125 373.567 351.092 372.1 350.662 370.911C350.232 369.723 348.55 369.214 347.533 369.965C346.872 367.865 343.902 366.931 342.158 368.275C343.169 365.157 345.169 362.368 347.797 360.41C344.831 360.251 341.818 361.159 339.434 362.931L346.66 329.487C346.049 328.962 345.03 329.315 344.579 329.983C344.132 330.643 344.082 331.484 344.035 332.281L344.033 332.307C343.357 343.727 339.33 354.928 332.58 364.165L329.93 356.496L326.131 365.656C324.409 364.323 321.967 363.986 319.949 364.805C320.464 366.763 322.031 368.411 323.961 369.024L324.86 366.615L330.795 370.591C328.527 368.214 328.035 364.325 329.641 361.458L333.232 367.482L340.193 353.715C340.232 359.243 337.863 364.467 335.541 369.484C338.065 367.507 340.234 365.079 341.916 362.35C343.539 365.224 341.766 369.078 338.943 370.789C336.12 372.5 332.629 372.593 329.331 372.454C324.299 372.241 319.228 371.609 314.164 370.978C302.791 369.56 291.45 368.146 280.647 371.495L279.089 357.131C276.709 361.431 275.22 366.221 274.743 371.113ZM342.524 371.496C342.28 371.204 342.282 370.736 342.528 370.446L342.724 370.52C343.054 369.731 344.441 369.796 344.696 370.612C344.056 371.074 343.305 371.38 342.524 371.496ZM379.229 218.886C371.404 214.931 362.093 215.998 353.407 217.189C350.953 217.525 348.451 217.878 346.228 218.971C344.005 220.064 342.069 222.043 341.685 224.49C320.473 221.841 300.145 212.505 284.315 198.139C280.88 195.021 277.374 190.581 278.919 186.206C279.404 184.831 280.349 183.671 281.332 182.593C288.713 174.501 298.888 169.635 308.794 164.963C297.567 165.948 286.795 171.409 279.364 179.882C277.661 181.824 276.091 183.994 275.504 186.509C274.056 192.72 278.88 198.547 283.709 202.714C299.114 216.01 318.491 224.644 338.679 227.209C339.889 227.362 339.952 229.064 339.841 230.28C339.349 235.686 342.296 240.961 346.38 244.536C350.464 248.112 355.58 250.259 360.656 252.182C376.376 258.136 392.69 262.522 409.277 265.252C410.373 265.432 411.878 265.347 412.109 264.261C408.281 261.728 403.674 260.764 399.17 259.82L399.17 259.82C398.926 259.769 398.683 259.718 398.44 259.667C387.019 257.263 375.751 254.131 364.727 250.298C360.205 248.725 355.671 247.008 351.728 244.292C347.785 241.576 344.435 237.739 343.174 233.119C342.552 230.839 343.397 227.434 345.744 227.721C355.3 228.889 365.119 230.043 374.451 227.673C376.562 227.136 378.763 226.327 380.051 224.569C381.338 222.812 381.173 219.869 379.229 218.886ZM355.123 225.201C351.843 224.636 348.492 224.485 345.174 224.752C346.786 221.689 350.724 220.883 354.153 220.416C361.606 219.401 369.368 218.412 376.509 220.775C376.981 220.931 377.484 221.13 377.74 221.556C378.075 222.118 377.83 222.882 377.353 223.329C376.876 223.776 376.225 223.979 375.595 224.155C368.96 226.009 361.913 226.369 355.123 225.201ZM246.572 379.699C252.061 379.545 257.584 380.759 262.504 383.2C261.189 385.09 258.546 385.354 256.245 385.442L196.109 387.724C195.558 387.656 195.454 386.804 195.845 386.41C196.235 386.015 196.845 385.964 197.4 385.937L256.104 383.074C252.713 382.762 249.403 381.591 246.572 379.699ZM130.841 180.815C129.984 184.914 133.452 189.286 137.627 189.596C130.799 199.886 118.5 204.965 106.682 208.55C99.306 210.787 91.1243 212.624 84.0929 209.467C83.2202 210 84.1507 211.313 85.072 211.757C91.9147 215.055 100.027 213.217 107.306 211.045C117.98 207.86 128.982 203.743 136.245 195.297C136.543 194.951 136.839 194.595 137.137 194.236C139.007 191.99 140.956 189.647 143.767 189.127C152.816 187.453 160.352 181.786 167.799 176.186C169.488 174.915 171.173 173.649 172.869 172.433C183.18 165.043 194.616 159.225 206.661 155.243C207.725 154.892 209.018 154.239 208.924 153.123C193.991 154.493 180.938 163.399 168.902 172.344L168.501 172.642L168.5 172.642C160.321 178.723 151.773 185.078 141.708 186.585C144.996 183.992 144.302 178 140.593 176.058C136.884 174.115 131.698 176.717 130.841 180.815ZM133.628 183.32C132.957 181.332 133.993 178.966 135.834 177.96C136.356 177.674 136.941 177.483 137.537 177.483C139.503 177.481 140.939 179.584 140.952 181.55C140.965 183.516 139.968 185.329 138.999 187.04C136.733 186.693 134.361 185.491 133.628 183.32ZM357.083 139.511C356.526 138.891 356.697 138.056 356.875 137.192C357 136.581 357.128 135.955 357.005 135.379C356.898 134.88 356.607 134.455 356.315 134.029C356.056 133.651 355.797 133.273 355.665 132.841C355.695 132.271 356.458 131.978 356.978 132.215C357.498 132.451 357.789 133.01 357.97 133.551C358.632 135.528 358.292 137.813 357.083 139.511ZM306.742 96.1349C308.133 92.836 310.892 89.9106 314.409 89.241C315.547 89.0242 315.512 87.1478 314.515 86.5579C313.517 85.968 312.236 86.3167 311.19 86.8147C306.317 89.1341 303.241 94.2397 302.035 99.5001C300.83 104.76 301.229 110.239 301.634 115.62L303.788 144.225C303.862 145.198 303.951 146.219 304.492 147.03C305.595 148.683 307.961 148.734 309.944 148.609L319.979 147.971C317.748 146.223 314.755 145.488 311.969 146.002C310.342 146.303 308.707 145.229 307.845 143.817C306.982 142.405 306.73 140.714 306.516 139.074C305.118 128.338 304.604 117.488 304.984 106.668C305.109 103.09 305.35 99.4338 306.742 96.1349ZM332.365 350.041C331.795 350.454 331.223 349.513 331.14 348.813C327.262 316.215 326.678 283.326 326.097 250.503L325.706 228.375C325.695 227.745 325.704 227.054 326.109 226.571C326.806 225.74 328.273 226.121 328.882 227.019C329.491 227.917 329.492 229.08 329.472 230.165C328.874 262.465 329.266 294.827 332.359 326.984C332.397 327.375 332.435 327.767 332.473 328.159C333.182 335.463 333.901 342.878 332.365 350.041ZM300.123 144.56C299.274 144.094 298.226 144.358 297.297 144.633C254.303 157.348 211.408 170.46 169.145 185.425C168.354 185.705 167.449 186.108 167.268 186.928C167.076 187.796 167.893 188.625 168.767 188.785C169.641 188.946 170.525 188.634 171.359 188.327C213.714 172.746 256.706 158.898 300.191 146.83C301.125 146.571 300.973 145.027 300.123 144.56Z" fill="#00160A"/>
<path fill-rule="evenodd" clip-rule="evenodd" d="M453.303 339.071C452.302 339.51 451.218 339.92 450.141 339.734C449.063 339.549 448.056 338.537 448.272 337.466C450.251 327.668 447.766 317.058 441.643 309.157C439.497 306.387 436.943 303.951 434.852 301.14C433.534 299.369 432.362 297.142 433.03 295.038C433.981 292.044 437.81 291.316 440.944 291.102C448.23 290.606 455.515 290.109 462.8 289.613C466.157 289.384 470.023 289.35 472.264 291.86C478.502 298.847 490.659 299.316 497.417 292.831C498.463 291.827 499.78 293.825 499.738 295.274C499.608 299.829 497.73 304.313 494.576 307.602C493.832 308.378 492.88 309.138 491.811 309.027C490.741 308.915 489.952 307.38 490.805 306.725C492.634 305.32 494.497 303.879 495.78 301.962C497.063 300.045 497.685 297.532 496.81 295.397C492.104 301.351 487.353 307.269 482.557 313.15C474.243 323.348 465.35 333.779 453.303 339.071ZM466.444 309.062C465.247 309.393 463.97 309.139 462.775 308.801C454.177 306.372 446.255 299.653 437.459 301.226C447.715 309.486 453.161 323.335 451.277 336.368C458.034 334.921 463.371 329.876 468.157 324.891C475.241 317.513 481.967 309.791 488.304 301.762C483.749 301.724 479.211 300.41 475.341 298.008C470.56 299.191 471.191 307.749 466.444 309.062ZM472.688 295.496C469.84 292.138 464.721 292.242 460.334 292.627C454.613 293.13 448.891 293.632 443.17 294.135C440.847 294.339 438.179 294.747 436.968 296.739C446.871 298.812 456.525 302.069 465.661 306.416C466.836 302.726 469.191 299.421 472.295 297.105C472.645 296.845 473.044 296.511 472.998 296.078C472.974 295.856 472.833 295.666 472.688 295.496V295.496Z" fill="#FFB61D"/>
<path fill-rule="evenodd" clip-rule="evenodd" d="M48.5118 215.419C39.8943 211.973 29.6247 212.995 21.8554 218.072C21.1033 218.564 20.0219 218.016 19.6495 217.198C19.2772 216.38 19.4165 215.429 19.6069 214.551C22.0883 203.111 31.9732 194.358 42.9662 190.335C53.9592 186.313 65.9836 186.301 77.6693 186.989C78.8288 187.057 80.0407 187.148 81.0297 187.757C82.0188 188.366 82.6843 189.668 82.1913 190.72C77.5945 200.526 74.1317 210.864 71.8941 221.46C71.5312 223.179 69.754 224.319 68.0036 224.462C66.2533 224.605 64.5382 223.958 62.9497 223.209C57.9993 220.875 53.5937 217.452 48.5118 215.419ZM49.4969 203.844C48.7289 204.468 47.5285 204.139 46.8058 203.463C46.0831 202.786 45.6713 201.851 45.1033 201.041C42.0563 196.694 35.0641 197.055 30.9195 200.371C26.7749 203.687 24.7693 208.927 22.943 213.911C35.1023 208.63 50.0786 210.525 60.5388 218.669C61.967 219.781 63.3841 221.034 65.1427 221.462C66.9014 221.89 69.1168 221.121 69.5623 219.367C71.942 209.995 74.8745 200.763 78.3395 191.736C71.691 200 57.7288 197.156 49.4969 203.844ZM46.8511 198.85C47.5339 199.708 48.7736 199.935 49.8528 199.742C50.932 199.548 51.9125 199.011 52.9181 198.574C56.3801 197.069 60.2146 196.733 63.9263 196.045C67.6379 195.357 71.4663 194.192 74.0792 191.468C68.1839 191.45 62.2885 191.432 56.3931 191.415C50.4686 191.397 44.0841 191.522 39.3246 195.05C42.222 195.156 45.0455 196.582 46.8511 198.85Z" fill="#FFB61D"/>
<path fill-rule="evenodd" clip-rule="evenodd" d="M325.374 214.629C325.36 209.444 325.347 204.258 325.333 199.073C325.329 197.583 325.325 196.094 325.321 194.605C325.318 193.578 325.49 192.293 326.466 191.974C327.204 191.732 328.017 192.263 328.362 192.959C328.707 193.654 328.703 194.465 328.691 195.242C328.584 202.478 328.476 209.715 328.368 216.951C328.353 217.992 328.178 219.272 327.204 219.637C325.579 218.717 325.379 216.497 325.374 214.629H325.374Z" fill="#00160A"/>
<path fill-rule="evenodd" clip-rule="evenodd" d="M315.022 209.83C314.271 210.159 313.884 208.923 314 208.111C314.415 205.208 314.831 202.298 315.538 199.451C315.978 197.678 316.611 195.813 318.075 194.722C319.539 193.63 322.053 193.821 322.769 195.501C323.116 196.315 322.971 197.244 322.812 198.114C321.827 203.501 320.499 208.826 318.841 214.045C318.77 214.266 318.693 214.497 318.526 214.658C318.117 215.05 317.381 214.786 317.098 214.297C316.815 213.807 316.852 213.203 316.897 212.64C317.571 212.59 317.886 211.798 318.047 211.142C318.708 208.462 319.37 205.782 320.031 203.102C320.545 201.017 321.014 198.642 319.817 196.859C318.588 197.616 318.126 199.148 317.76 200.545C317.023 203.355 316.287 206.165 315.551 208.976C315.463 209.312 315.34 209.691 315.022 209.83L315.022 209.83Z" fill="#00160A"/>
</svg>
