<svg width="304" height="305" viewBox="0 0 304 305" fill="none" xmlns="http://www.w3.org/2000/svg">
<path d="M130.686 131.351C119.137 131.351 138.829 -10.7857 89.5892 5.2636C42.7732 20.5228 108.235 131.351 97.235 131.351C86.235 131.351 9.35279 124.969 4.23438 159.72C-1.48196 198.531 99.2338 176.807 102.234 181.785C105.235 186.764 62.6899 245.709 89.5892 263.742C117.457 282.424 153.04 213.307 159.138 213.307C165.235 213.307 196.749 326.536 222.363 295.264C243.18 269.849 193.557 213.307 203.396 213.307C213.234 213.307 286.636 219.051 298.234 181.785C312.409 136.242 185.735 168.764 178.105 159.72C170.476 150.677 239.164 78.0834 203.396 58.8506C168.079 39.8605 142.235 131.351 130.686 131.351Z" stroke="#B1F25E" stroke-width="8" stroke-linecap="round"/>
</svg>
