<svg width="495" height="191" viewBox="0 0 495 191" fill="none" xmlns="http://www.w3.org/2000/svg">
<path d="M4.39755 116.811C4.39755 116.811 47.0701 65.1509 86.5446 52.1561C138.988 34.8919 183.425 106.771 182.949 144.155C182.474 181.539 146.506 187.898 122.93 186.315C99.353 184.732 79.368 157.545 84.9808 124.655C90.5936 91.7648 140.605 26.7765 217.617 26.7765C294.63 26.7765 334.916 65.5227 308.523 110.771C298.857 127.342 285.268 136.453 270.771 142.193C256.275 147.933 224.866 142.193 224.866 110.771C224.866 79.3485 284.726 21.8927 340.234 26.7765C389.948 31.1506 438.992 64.8417 438.992 103.517C438.992 142.193 402.448 142.193 394.596 142.193C386.744 142.193 365.301 139.17 361.073 110.771C356.845 82.3718 371.643 -8.87693 490.938 5.92903" stroke="#F25E9C" stroke-width="8" stroke-linecap="round"/>
</svg>
