<svg width="510" height="437" viewBox="0 0 510 437" fill="none" xmlns="http://www.w3.org/2000/svg">
<path fill-rule="evenodd" clip-rule="evenodd" d="M307.095 436.981C419.798 436.981 435.775 386.841 452.864 377.628C469.952 368.414 459.328 349.924 470.536 335.977C488.438 313.701 499.288 325.181 505.213 296.282C511.137 267.382 500.366 259.207 500.366 233.405C500.366 181.711 525.13 157.241 493.506 130.194C461.883 103.147 409.074 106.338 356.844 106.338C259.901 106.338 201.824 -26.5556 72.5254 13.3141C27.9663 27.054 32.891 45.7783 42.6819 111.949C46.9336 140.684 14.8318 177.218 20.4016 209.872C30.5742 269.511 57.4406 261.421 108.131 301.687C116.635 308.443 129.039 308.373 138.31 315.301C153.852 326.916 154.852 344.978 183.909 357.16C230.764 376.804 226.79 436.981 307.095 436.981Z" fill="#5EF2E0"/>
<ellipse cx="91.6379" cy="283.035" rx="28.4943" ry="26.7947" fill="white"/>
<path fill-rule="evenodd" clip-rule="evenodd" d="M80.4634 187.5C75.6059 175.369 79.849 168.1 82.5688 158.612C84.8408 150.686 102.608 137.812 110.784 151.236C113.19 155.185 112.225 158.919 117.483 162.389C130.21 170.792 123.267 153.36 123.74 148.953C123.971 146.804 122.155 141.846 122.831 139.772C123.54 137.595 127.322 134.503 127.322 129.991C127.322 125.478 119.63 123.741 117.483 122.632C98.4016 112.78 86.2665 96.3253 92.3139 87.9742C100.74 76.3389 133.761 94.6458 143.682 96.3253C143.811 96.347 145.583 87.0966 147.03 84.9785C149.926 80.7407 153.126 76.627 156.944 73.1965C158.654 71.6598 160.972 70.7113 163.251 70.4038C170.069 69.4838 177.045 68.7293 183.875 69.5626C186.289 69.8571 200.661 53.2228 206.266 47.8571C249.262 6.68973 335.456 56.8564 288.473 125.025C279.837 137.555 268.795 141.539 267.369 145.967C264.201 155.804 284.143 154.51 292.59 155.561C307.021 157.355 314.133 164.769 305.175 177.475C299.594 185.39 266.855 184.986 252.513 179.262C247.19 177.138 240.612 167.849 235.581 175.469C232.115 180.719 218.6 191.858 204.102 198.159C197.558 201.003 190.104 199.289 184.52 201.829C176.66 205.404 153.455 220.414 143.682 220.411C133.84 220.407 121.103 208.562 119.63 207.785C117.384 206.601 100.01 203.207 91.4266 189.962C88.831 185.956 82.2415 191.941 80.4634 187.5Z" fill="white"/>
<ellipse cx="247.58" cy="117.174" rx="3.01844" ry="2.97529" fill="#FFB61D"/>
<circle cx="225.48" cy="110.963" r="2.93067" fill="#FFB61D"/>
<circle cx="439" cy="108.451" r="39.7733" fill="white"/>
<ellipse cx="314.635" cy="334.088" rx="115.573" ry="98.7809" fill="white"/>
<path fill-rule="evenodd" clip-rule="evenodd" d="M216.656 387.949L217.953 388.888C215.025 391.515 210.621 388.248 208.152 385.187C204.182 380.264 200.152 375.032 198.944 368.823C198.256 365.291 198.531 361.651 198.809 358.063L199.929 343.596C200.426 337.185 200.923 330.762 202.033 324.428C205.037 307.287 212.597 290.965 223.73 277.589L223.842 277.455C225.808 275.094 227.955 272.516 227.917 269.455C227.837 262.979 231.566 256.927 236.463 252.687C241.36 248.448 247.356 245.727 253.26 243.064C255.935 241.858 259.428 240.777 261.5 242.854C265.764 247.125 272.88 244.404 278.512 242.235C285.426 239.571 292.812 238.136 300.221 238.017C300.437 238.013 300.654 238.01 300.873 238.007C305.321 237.943 310.328 237.872 313.042 234.426C314.77 232.231 318.074 232.358 320.847 232.69L339.921 234.972C341.378 235.146 343.125 235.544 343.585 236.938C344.817 240.676 349.163 242.201 352.932 243.338C366.329 247.377 379.423 252.861 390.797 261.012C402.171 269.163 411.784 280.127 416.884 293.157C408.591 281.822 400.083 270.273 388.573 262.223C385.28 259.919 381.776 257.93 378.221 256.056C369.828 251.631 361.094 247.818 352.02 245.048C309.897 232.191 261.171 244.116 229.746 274.972C225.189 279.446 220.917 284.374 218.333 290.213L221.747 291.272C216.336 293.69 212.318 298.989 211.448 304.851C213.625 301.122 216.728 297.938 220.401 295.665C219.35 299.176 216.616 301.998 213.936 304.763C210.521 308.288 207.193 311.722 207.546 316.38C209.168 312.124 213.252 308.912 217.77 308.339C210.604 315.341 202.915 323.558 203.143 333.574C205.757 327.79 210.196 322.847 215.666 319.628L207.791 330.211C204.813 334.213 201.676 338.786 202.357 343.728C204.948 339.079 208.652 335.054 213.072 332.088C210.943 336.928 207.905 341.366 204.162 345.101C207.721 344.671 211.148 343.196 213.908 340.908C212.751 342.523 211.708 344.345 211.669 346.332C211.631 348.318 212.918 350.449 214.884 350.735C215.479 349.404 217.345 348.842 218.576 349.623C214.845 353.253 214.807 359.98 218.496 363.652C218.824 361.926 220.28 360.471 222.006 360.145C219.254 364.956 218.76 370.998 220.692 376.193C221.277 373.25 222.91 370.526 225.23 368.623C223.892 375.605 220.935 382.272 216.656 387.949ZM215.026 385.724C217.356 385.701 218.805 383.094 219.048 380.777C219.338 378.005 218.65 375.235 217.967 372.532L213.914 356.504C213.151 356.745 213.063 357.575 212.97 358.444C212.891 359.186 212.808 359.957 212.301 360.414C211.275 359.138 211.159 357.207 212.024 355.817C212.897 354.414 212.326 352.45 211.087 351.356C209.848 350.262 208.124 349.891 206.472 349.836C205.58 349.807 204.631 349.876 203.9 350.39C203.17 350.903 202.785 351.996 203.304 352.723C204.849 354.887 206.011 357.324 206.72 359.886C206.773 360.078 206.825 360.271 206.876 360.466C207.229 361.796 207.592 363.164 208.565 364.113C209.317 364.846 209.509 365.964 209.662 367.004L210.9 375.426C211.125 376.959 211.351 378.522 211.093 380.05C210.835 381.578 210.009 383.093 208.623 383.786L213.049 385.292C213.691 385.51 214.348 385.731 215.026 385.724ZM263.26 247.675C262.388 247.859 261.657 247.093 261.033 246.439L260.961 246.364C260.321 245.695 259.221 245.112 258.547 245.746C250.693 253.135 241.755 259.37 232.109 264.19C230.358 265.064 230.123 267.423 230.122 269.38C230.122 270.034 230.748 270.951 231.155 270.44C233.144 267.948 235.731 266.013 238.287 264.107C245.48 258.745 252.76 253.332 261.006 249.796C262.006 249.367 263.178 248.76 263.26 247.675ZM342.198 239.365C341.753 238.32 340.488 237.944 339.372 237.733C336.332 237.161 333.238 236.901 330.147 236.642C325.901 236.286 321.662 235.93 317.577 234.765C316.268 234.391 315.149 235.717 314.431 236.874C316.584 236.65 318.751 236.557 320.915 236.597C324.682 236.666 328.428 237.135 332.166 237.604C334.066 237.842 335.979 238.083 337.801 238.672C338.013 238.741 338.227 238.815 338.442 238.888C339.685 239.315 340.971 239.757 342.198 239.365ZM301.988 255.419C302.849 255.616 303.669 256.259 303.797 257.133C303.926 258.004 303.33 258.854 302.569 259.297C301.809 259.741 300.909 259.865 300.036 259.981L297.408 260.329C297.144 260.364 296.873 260.402 296.644 260.537C295.983 260.928 296.029 261.988 296.569 262.534C297.109 263.08 297.938 263.215 298.706 263.214C302.281 263.207 305.666 260.634 306.758 257.229C307.017 256.421 307.155 255.522 306.834 254.736C306.671 254.337 306.398 253.991 306.096 253.684C304.69 252.259 302.594 251.631 300.597 251.772C298.6 251.913 296.701 252.764 295.075 253.933C294.296 254.494 293.554 255.15 293.111 256.002C292.669 256.853 292.574 257.934 293.069 258.756C293.258 259.07 293.55 259.348 293.911 259.406C294.272 259.465 294.689 259.232 294.734 258.869C294.859 257.859 295.596 257.006 296.474 256.493C297.352 255.98 298.365 255.754 299.363 255.554C300.229 255.381 301.127 255.223 301.988 255.419ZM231.523 305.365C232.505 299.554 237.2 294.829 242.672 292.64C245.687 291.433 249.138 290.904 252.17 292.067C252.919 292.354 253.643 292.75 254.182 293.343C254.689 293.9 255.008 294.602 255.248 295.316C256.789 299.886 255.225 305.17 251.915 308.678C248.605 312.185 243.786 314.025 238.976 314.37C237.435 314.48 235.78 314.418 234.508 313.542C233.235 312.666 232.603 310.72 233.583 309.526C234.046 309.548 234.296 309.962 234.552 310.385C234.678 310.594 234.806 310.807 234.963 310.975C235.497 311.55 236.38 311.591 237.164 311.558C240.575 311.415 244.037 310.569 246.813 308.583C249.589 306.596 251.584 303.351 251.526 299.938C251.507 298.838 251.268 297.713 250.645 296.807C249.622 295.319 247.688 294.648 245.887 294.766C244.085 294.885 242.396 295.684 240.862 296.636C238.844 297.889 236.978 299.464 235.713 301.475C234.448 303.485 233.829 305.971 234.364 308.286C233.891 309.139 232.486 308.969 231.905 308.185C231.324 307.401 231.36 306.327 231.523 305.365ZM262.934 353.261C260.438 354.867 258.369 357.38 257.985 360.322C257.673 362.702 258.471 365.073 259.257 367.341C259.871 369.111 260.505 370.92 261.674 372.384C263.785 375.029 267.28 376.123 270.621 376.661C271.531 376.807 272.911 376.396 272.587 375.534C269.059 375.469 265.59 373.834 263.294 371.155C260.998 368.476 259.914 364.797 260.391 361.301C260.491 360.566 260.658 359.834 260.967 359.159C261.592 357.794 262.757 356.744 264.018 355.929C266.733 354.175 270.038 353.353 273.258 353.631C276.363 353.899 279.464 355.26 281.359 357.733C283.254 360.207 283.706 363.856 282.034 366.486C281.762 366.913 281.563 367.669 282.062 367.758C284.754 366.308 286.249 363.109 286.098 360.054C285.947 357 284.334 354.141 282.118 352.034C280.892 350.868 279.44 349.883 277.796 349.487C275.628 348.965 273.36 349.504 271.203 350.071C268.333 350.826 265.429 351.655 262.934 353.261ZM385.485 357.055C376.461 353.686 366.656 352.43 357.075 353.417C353.057 353.83 349.027 354.65 345.416 356.458C338.601 359.868 333.728 366.889 332.917 374.467C332.107 382.045 335.384 389.938 341.323 394.713C343.575 396.524 346.131 397.88 348.691 399.237L348.691 399.237C350.439 400.164 352.188 401.092 353.842 402.165C354.315 402.617 353.252 403.068 352.629 402.867C346.842 400.999 341.221 398.158 337.093 393.692C332.071 388.259 329.621 380.544 330.59 373.209C331.559 365.874 335.927 359.059 342.188 355.117C347.14 351.998 353.06 350.684 358.908 350.473C364.757 350.262 370.588 351.098 376.371 351.994C379.983 352.554 384.218 353.627 385.485 357.055ZM290.539 368.361C290.13 367.422 288.482 367.178 288.181 368.157C286.267 374.386 280.189 379.096 273.679 379.394C272.208 379.462 270.735 379.325 269.269 379.183C266.112 378.878 262.855 378.517 260.09 376.962C256.114 374.726 253.721 370.136 253.693 365.574C253.665 361.012 255.828 356.579 259.114 353.414C258.658 352.137 256.7 352.754 255.728 353.699C250.339 358.937 249.415 367.977 253.196 374.471C256.977 380.965 264.9 384.605 272.369 383.779C279.838 382.954 286.581 377.953 290.053 371.289C290.527 370.38 290.949 369.3 290.539 368.361ZM243.767 399.904C242.551 404.57 242.435 409.519 243.433 414.236C243.88 416.352 243.929 417.518 243.938 417.736C243.939 417.761 243.94 417.774 243.94 417.774C243.941 417.774 243.942 417.761 243.943 417.736C243.953 417.518 244.006 416.348 244.463 414.228C245.484 409.502 245.241 404.509 243.767 399.904ZM250.231 402.726C248.503 406.349 248.717 410.832 250.783 414.274C251.247 415.047 251.599 415.675 251.859 416.139L251.859 416.139C252.209 416.763 252.391 417.089 252.454 417.067C252.523 417.043 252.45 416.606 252.296 415.691C252.235 415.325 252.161 414.881 252.077 414.356L250.231 402.726ZM255.098 407.353C254.365 409.666 254.904 412.34 256.478 414.188C258.084 416.075 258.609 416.68 258.12 414.251C257.62 411.771 256.582 409.401 255.098 407.353ZM395.944 381.039C393.737 389.899 386.688 396.612 379.852 402.666C380.165 403.339 381.174 403.097 381.821 402.733C388.745 398.837 394.347 392.486 396.903 384.964C399.459 377.442 398.823 368.8 394.788 361.956C394.45 361.382 394.018 360.77 393.364 360.642C392.71 360.514 391.956 361.273 392.34 361.817C396.218 367.31 397.569 374.515 395.944 381.039ZM296.407 301.045C296.39 299.643 296.41 298.126 297.256 297.009C298.422 295.471 300.632 295.309 302.562 295.282C303.423 295.27 304.295 295.259 305.133 295.458C306.917 295.883 308.338 297.199 309.605 298.526C309.885 298.82 310.184 299.182 310.114 299.582C310.028 300.078 309.406 300.306 308.913 300.205C308.585 300.137 308.29 299.974 307.995 299.811C307.847 299.728 307.698 299.646 307.545 299.575C305.77 298.761 303.685 299.654 302.091 300.781C301.841 300.959 301.571 301.186 301.565 301.493C301.559 301.801 301.823 302.04 302.071 302.222C304.225 303.799 306.982 304.53 309.634 304.226C310.268 304.153 311.013 303.92 311.177 303.304C311.242 303.063 311.217 302.779 311.193 302.505C311.152 302.047 311.114 301.616 311.499 301.457C311.7 301.374 311.928 301.434 312.136 301.494C313.571 301.912 315.25 302.583 315.528 304.052C315.608 304.476 315.551 304.918 315.416 305.329C315.021 306.529 313.919 307.467 312.67 307.666C312.116 307.754 311.55 307.706 310.991 307.658C309.53 307.532 308.067 307.407 306.62 307.174C303.962 306.746 301.363 305.954 298.918 304.827C298.069 304.436 297.187 303.955 296.757 303.125C296.43 302.495 296.415 301.755 296.407 301.045ZM351 266.484C350.145 264.174 348.081 262.352 345.684 261.791C344.942 261.617 344.105 261.575 343.476 262.004C342.847 262.434 342.63 263.482 343.23 263.952C343.812 264.407 343.46 265.479 342.75 265.681C342.039 265.884 341.275 265.401 340.92 264.753C340.565 264.106 340.527 263.336 340.523 262.597C340.518 261.611 340.608 260.511 341.336 259.847C341.613 259.594 341.959 259.43 342.302 259.277C343.721 258.643 345.29 258.105 346.806 258.446C348.251 258.77 349.403 259.837 350.41 260.922C351.236 261.812 352.018 262.743 352.75 263.712C353.396 264.565 354.017 265.475 354.259 266.517C354.502 267.56 354.293 268.769 353.487 269.474C352.699 270.163 351.487 270.222 350.53 269.796C349.685 269.42 348.964 268.592 349.027 267.668C349.09 266.745 350.224 265.98 351 266.484ZM358.624 331.401C360.743 331.34 362.717 329.709 363.175 327.639C363.453 326.38 363.11 324.883 362.013 324.206C361.212 323.712 360.204 323.748 359.264 323.808C357.963 323.891 356.613 324.005 355.482 324.655C354.351 325.304 353.511 326.65 353.865 327.905C354.441 329.946 356.505 331.462 358.624 331.401ZM358.896 328.344C358.486 328.454 357.902 328.348 357.865 327.926C357.85 327.75 357.944 327.584 358.052 327.445C358.655 326.665 359.801 326.362 360.71 326.743C360.394 327.516 359.703 328.127 358.896 328.344ZM359.99 296.989C359.645 296.192 360.314 295.264 361.126 294.959C361.777 294.715 362.484 294.74 363.185 294.765C363.359 294.772 363.534 294.778 363.707 294.78C364.574 294.791 365.534 294.646 366.097 293.986C366.295 293.753 366.43 293.41 366.279 293.144C366.12 292.866 365.747 292.818 365.427 292.801C363.215 292.687 360.603 292.755 359.328 294.566C359.054 294.955 358.383 294.824 358.126 294.422C357.87 294.021 357.929 293.495 358.075 293.041C358.597 291.418 360.097 290.238 361.735 289.764C363.373 289.291 365.132 289.44 366.794 289.817C367.355 289.944 367.937 290.111 368.347 290.514C368.671 290.835 368.853 291.273 368.972 291.713C369.538 293.819 368.702 296.231 366.953 297.534C365.205 298.837 362.655 298.95 360.798 297.805C360.467 297.601 360.145 297.346 359.99 296.989ZM352.408 334.199C353.435 335.43 354.652 336.549 356.128 337.176C359.111 338.443 362.925 337.273 364.684 334.551C365.325 333.56 365.612 332.048 364.664 331.344C363.146 334.535 358.744 335.943 355.656 334.227C355.064 333.898 354.526 333.478 354.037 333.01C351.816 330.884 350.658 327.411 351.961 324.626C352.386 323.718 353.038 322.934 353.751 322.23C355.307 320.695 357.533 319.437 359.609 320.12C359.696 320.149 359.781 320.18 359.868 320.212C360.158 320.319 360.45 320.427 360.756 320.409C361.152 320.386 361.566 320.031 361.464 319.647C361.434 319.534 361.364 319.435 361.291 319.343C360.008 317.708 357.489 317.203 355.674 318.217C353.514 319.423 351.319 320.844 350.171 323.035C348.301 326.602 349.827 331.107 352.408 334.199ZM386.809 279.186C386.714 279.322 386.737 279.512 386.76 279.693C386.787 279.908 386.812 280.112 386.636 280.199C385.989 280.518 385.215 280.485 384.527 280.274C382.645 279.696 381.384 277.97 380.32 276.315C379.698 275.347 379.078 274.319 378.977 273.173C378.877 272.027 379.463 270.736 380.567 270.412C381.798 270.051 383.005 270.966 383.963 271.819C385.044 272.781 386.149 273.773 386.818 275.057C387.487 276.34 387.636 277.998 386.809 279.186ZM382.718 274.891C382.984 275.149 383.129 275.495 383.274 275.842C383.417 276.183 383.561 276.525 383.819 276.782C384.146 277.108 384.642 277.254 385.093 277.157C384.248 275.848 383.268 274.626 382.174 273.517C381.881 273.604 381.857 274.038 382.033 274.288C382.14 274.44 382.289 274.551 382.439 274.663C382.535 274.735 382.632 274.807 382.718 274.891ZM221.691 393.151C221.586 394.868 221.718 396.859 223.093 397.894C223.551 397.638 223.52 396.983 223.462 396.461C223.107 393.251 224.103 390.156 225.106 387.041C225.824 384.811 226.545 382.57 226.777 380.27C226.844 379.602 226.666 378.688 225.995 378.662C225.493 378.643 225.169 379.173 224.966 379.633C223.088 383.898 221.974 388.499 221.691 393.151ZM355.051 331.198C356.602 331.884 358.322 332.584 359.945 332.091C360.59 331.895 361.165 331.522 361.73 331.153C361.728 332.102 360.912 332.899 360.003 333.17C359.094 333.442 358.116 333.296 357.188 333.096C356.158 332.873 354.899 332.241 355.051 331.198ZM232.349 410.381C232.745 409.676 232.812 408.84 232.871 408.034L233.339 401.612C233.569 398.46 233.799 395.296 233.593 392.142C233.567 391.745 233.526 391.326 233.295 391.002C233.063 390.678 232.572 390.505 232.254 390.745C232.021 390.922 231.962 391.243 231.921 391.533C231.413 395.179 231.141 398.859 231.108 402.54C231.085 405.21 231.207 407.968 232.349 410.381ZM225.33 404.862C224.918 405.209 224.233 404.904 224.007 404.415C223.78 403.926 223.871 403.356 223.968 402.827C224.985 397.284 226.138 391.766 227.426 386.28C227.458 386.143 227.493 386.001 227.582 385.891C227.921 385.472 228.606 385.893 228.847 386.376C229.438 387.559 229.155 388.971 228.859 390.261L225.684 404.107C225.621 404.383 225.546 404.679 225.33 404.862ZM236.325 405.108C236.148 407.187 236.46 409.273 236.77 411.336C236.881 412.071 237.41 413.047 238.074 412.713L239.367 398.881C239.42 398.318 239.455 397.694 239.106 397.249C238.757 396.805 237.874 396.823 237.763 397.377L236.809 402.12C236.61 403.11 236.411 404.102 236.325 405.108ZM369.893 362.715C366.211 360.819 361.729 360.072 357.903 361.661C355.046 362.847 346.971 367.971 345.896 374.539C345.177 378.936 345.184 383.429 346.723 387.674L346.971 388.34C347.429 389.542 348.889 390.924 349.706 389.93C347.322 385.621 346.877 380.285 348.513 375.64C350.149 370.995 353.84 367.117 358.399 365.253C359.358 364.861 360.36 364.552 361.391 364.455C363.478 364.257 365.56 364.933 367.425 365.889C371.441 367.946 376.416 371.368 378.327 375.454C380.17 379.395 381.527 384.094 379.859 388.111C378.192 392.129 367.237 395.036 367.237 395.036L368.45 397.248C368.45 397.248 374.582 396.038 378.327 393.31C394.049 381.859 373.416 364.529 369.893 362.715Z" fill="#00160A"/>
<path fill-rule="evenodd" clip-rule="evenodd" d="M91.9679 306.176C86.4076 306.772 80.5181 305.486 76.1766 301.961C73.1018 299.465 70.9413 295.992 69.4253 292.333C67.7793 288.36 66.833 284.099 66.6428 279.803C66.5712 278.186 66.6096 276.538 67.0849 274.991C67.8671 272.444 69.7508 270.4 71.6738 268.556C75.7647 264.632 80.5732 261.052 86.1812 260.227C90.0025 259.665 93.8897 260.431 97.6302 261.394C100.568 262.15 103.502 263.041 106.144 264.531C111.983 267.823 116.03 274.102 116.615 280.78C117.2 287.457 116.48 291.882 107.469 300.178C102.786 303.235 97.5283 305.579 91.9679 306.176ZM101.774 285.215C100.872 285.499 99.9729 286.002 99.0419 285.838C97.1398 285.504 96.7995 282.894 97.2218 281.01C98.4308 275.615 102.191 270.851 107.157 268.422C106.033 266.382 103.047 266.233 100.935 267.213C98.8224 268.193 97.1713 269.959 95.1287 271.077C94.1122 271.633 92.9076 272.027 91.8018 271.68C89.9822 271.111 89.2877 268.727 89.8833 266.916C90.479 265.105 91.9657 263.753 93.3932 262.489C88.2205 262.67 83.102 264.223 78.7001 266.946C75.2541 269.077 71.9854 272.572 72.4426 276.598C75.2919 274.305 78.6371 272.631 82.1808 271.725C82.9324 271.533 83.8758 271.437 84.3462 272.054C84.7024 272.521 84.6001 273.193 84.3718 273.735C83.2392 276.421 79.9082 277.322 77.8421 279.379C77.5708 279.649 77.3106 279.961 77.245 280.338C77.1163 281.077 77.8207 281.751 78.5607 281.875C79.3007 281.998 80.0435 281.729 80.7455 281.464C82.2032 280.914 83.661 280.364 85.1188 279.814C86.1741 279.416 87.427 279.036 88.3655 279.661C89.3364 280.309 89.4279 281.781 88.8792 282.811C88.3305 283.84 87.3232 284.531 86.354 285.181C84.0177 286.747 81.6814 288.312 79.345 289.878C77.3889 291.189 75.1975 292.957 75.3834 295.304C75.5584 297.514 77.9892 299.015 80.2012 298.874C82.4132 298.732 84.3599 297.379 85.9924 295.88C87.625 294.38 89.0985 292.669 90.9944 291.52C92.2315 290.771 93.9966 290.355 95.0016 291.395C95.778 292.199 95.7031 293.491 95.4117 294.569C94.5719 297.679 92.3011 300.37 89.3777 301.722C91.7562 302.27 94.2367 302.374 96.6528 302.025C98.0307 301.826 99.4572 301.444 100.454 300.472C101.45 299.5 101.836 297.789 100.971 296.697C99.6822 295.069 99.7335 292.687 100.557 290.781C101.381 288.875 102.852 287.335 104.293 285.84C103.881 284.99 102.675 284.932 101.774 285.215ZM112.786 288.91C114.081 285.916 114.128 282.53 113.8 279.285C113.437 275.695 112.186 271.591 108.804 270.333C103.849 272.39 100.025 276.978 98.8951 282.223C98.8002 282.664 98.7259 283.138 98.8993 283.554C99.0726 283.97 99.588 284.274 99.9873 284.064C101.357 283.347 103.042 282.939 104.435 283.612C105.828 284.285 106.506 286.384 105.378 287.442C104.132 288.612 102.852 289.828 102.18 291.399C101.508 292.97 101.605 295.004 102.87 296.153C103.822 297.015 103.824 298.71 102.875 299.575C105.572 298.787 107.494 296.468 109.243 294.269C110.58 292.588 111.933 290.882 112.786 288.91ZM81.7369 273.427C78.9313 274.591 76.208 275.953 73.594 277.5C72.9724 277.867 72.3441 278.257 71.8895 278.818C71.2758 279.576 71.0425 280.565 70.8529 281.522C70.2401 284.613 69.9242 287.941 71.2222 290.812C71.6366 291.729 72.2029 292.567 72.7664 293.4C72.9327 293.646 73.1216 293.909 73.4067 293.992C73.6917 294.075 74.0683 293.845 74.0013 293.556C73.7949 292.664 74.47 291.826 75.1361 291.199C79.0378 287.526 84.2941 285.418 87.8027 281.368C87.2704 280.738 86.2608 281.034 85.5019 281.358C83.6944 282.13 81.8306 282.77 79.9303 283.271C78.95 283.53 77.8575 283.74 76.9629 283.263C75.6535 282.565 75.4404 280.655 76.132 279.342C76.8236 278.03 78.1384 277.182 79.4064 276.412C80.6744 275.641 82.0046 274.837 82.7654 273.563C82.627 273.2 82.0954 273.279 81.7369 273.427ZM91.3389 298.029C92.5788 297.033 93.9184 295.858 94.0536 294.274C94.1243 293.445 93.5928 292.432 92.7649 292.511C92.5105 292.535 92.2781 292.661 92.0587 292.792C88.4532 294.946 86.0803 299.158 82.0131 300.205C83.1624 300.719 84.3608 301.124 85.5867 301.412C85.9517 301.497 86.3318 301.573 86.699 301.497C87.1262 301.409 87.4837 301.127 87.8238 300.854C88.9955 299.912 90.1672 298.971 91.3389 298.029ZM94.6919 263.597C93.8896 264.485 93.0873 265.372 92.285 266.259C91.6495 266.962 90.9677 267.89 91.3215 268.769C91.5821 269.416 92.3517 269.744 93.0477 269.69C93.7437 269.636 94.3776 269.28 94.9613 268.897C97.0412 267.532 98.914 265.673 101.341 265.128C99.6582 264.514 97.9753 263.901 96.2923 263.288C95.9419 263.16 95.551 263.033 95.2062 263.175C94.9993 263.26 94.842 263.431 94.6919 263.597Z" fill="#00160A"/>
<path fill-rule="evenodd" clip-rule="evenodd" d="M126.01 157.6C125.801 161.805 122.556 166.358 118.376 165.861C116.489 163.679 115.012 160.97 113.553 158.293C110.749 153.152 108.01 148.128 102.553 147.174C97.1922 146.237 92.2002 150.18 88.8617 154.477C84.0265 160.701 80.9019 168.24 79.9169 176.059C79.3379 180.656 81.2231 187.031 85.8288 186.525C91.0896 185.947 94.8309 190.086 98.6362 194.295C102.158 198.19 105.735 202.146 110.622 202.48C116.441 202.877 121.194 206.363 126.005 209.892C129.219 212.249 132.458 214.625 136.058 216.112C142.831 218.911 150.641 218.369 157.555 215.939C164.468 213.509 170.621 209.323 176.444 204.875L176.749 204.641L176.749 204.641C179.928 202.21 183.256 199.665 187.208 199.13C207.42 196.392 226.219 184.537 237.399 167.478C253.251 180.15 275.413 184.48 294.869 178.708C298.17 177.729 301.492 176.416 303.94 173.994C306.388 171.573 307.776 167.813 306.573 164.587C305.257 161.059 301.325 159.17 297.587 158.715C295.538 158.466 293.473 158.54 291.406 158.614C289.703 158.674 287.998 158.735 286.301 158.615C276.024 157.889 267.466 150.801 259.685 144.048C270.96 140.59 280.101 131.904 286.137 121.772C292.173 111.641 295.408 100.1 297.865 88.5658C299.158 82.4961 300.119 75.6584 296.651 70.5117C295.099 68.2081 292.824 66.5239 290.556 64.8456C288.002 62.9558 285.459 61.0734 283.97 58.3225C281.106 53.0312 275.525 49.8935 270.231 47.0351C256.376 39.555 240.462 31.8564 225.531 36.8518C219.715 38.7977 214.691 42.5264 209.792 46.2166C201.658 52.3446 192.944 59.533 191.395 69.599C178.085 63.6442 160.865 68.3999 152.498 80.3414C150.584 83.0728 149.115 86.0849 147.647 89.0939C145.919 92.6364 144.193 96.1747 141.746 99.2456C131.918 94.7678 121.905 90.6976 111.74 87.0489C107.233 85.4313 101.85 84.0017 97.9657 86.8022C94.8516 89.0476 93.8963 93.455 94.8104 97.1838C95.7245 100.913 98.1648 104.074 100.782 106.883C106.459 112.977 113.279 118.004 120.781 121.623C121.023 121.74 121.267 121.856 121.511 121.972C123.86 123.091 126.274 124.242 127.839 126.296C129.565 128.563 129.673 132.358 127.252 133.863C123.676 136.085 123.017 141.072 123.75 145.218C124.001 146.635 124.369 148.038 124.736 149.439C125.443 152.139 126.149 154.832 126.01 157.6ZM223.089 179.77C214.079 189.231 201.4 194.766 188.436 196.384C175.471 198.002 162.233 195.898 149.849 191.736C153.18 191.734 155.589 187.373 153.817 184.552C146.992 192.508 136.586 196.235 126.671 199.637C117.714 202.712 107.007 200.479 100.427 193.667C93.8471 186.856 92.0666 175.68 96.6938 167.417C98.7051 163.825 102.116 160.699 106.218 160.346C110.319 159.994 114.736 163.394 114.355 167.493C112.073 167.097 109.671 169.035 109.577 171.35C118.406 170.399 126.707 165.339 131.598 157.928C133.287 155.369 134.57 152.583 135.854 149.794C136.716 147.921 137.579 146.048 138.565 144.242C141.02 139.745 144.544 135.458 149.429 133.913C153.349 132.673 157.587 133.362 161.639 134.06L179.639 137.164C180.987 136.001 178.805 134.137 177.063 133.773C171.437 132.598 165.733 131.873 160.028 131.149L160.028 131.149L160.027 131.149C154.737 130.477 149.447 129.805 144.218 128.773C133.351 126.629 122.428 122.707 114.518 114.953C119.884 111.866 123.966 106.621 125.641 100.662C125.98 99.4568 125.172 97.4764 124.193 98.2572C123.075 102.126 121.862 106.16 119.06 109.052C116.257 111.944 111.338 113.214 108.166 110.733C104.048 107.513 99.7191 103.999 98.0907 99.0319C96.4622 94.0644 99.0383 87.3931 104.23 86.7841C106.561 86.5107 108.839 87.4737 110.988 88.4157L132.669 97.9195C139.122 100.748 145.671 103.605 152.641 104.631C157.536 105.352 162.513 105.15 167.456 104.946L181.468 104.368C182.041 104.344 182.629 104.317 183.156 104.092C184.564 103.492 185.041 101.772 185.352 100.274C189.112 82.1289 194.164 62.9806 207.832 50.4679C213.948 44.8688 221.566 40.9267 229.669 39.168C237.656 37.4345 246.469 37.9442 253.346 42.3618C241.81 43.2108 230.609 48.0753 222.114 55.9252C218.544 52.115 211.901 55.2294 209.054 59.6058C204.641 66.39 204.721 75.8143 209.249 82.5224C213.061 88.1689 214.474 94.9062 215.891 101.659C217.193 107.865 218.497 114.085 221.669 119.483C226.686 128.023 236.029 133.505 245.787 135.204C255.544 136.903 265.66 135.128 274.934 131.651C264.555 142.003 247.973 145.584 234.247 140.438C233.246 140.062 232.25 139.643 231.254 139.224C228.1 137.895 224.935 136.563 221.552 136.602C223.534 138.701 226.065 140.277 228.824 141.128C225.643 146.47 222.306 151.719 218.819 156.866C218.373 157.525 217.865 158.226 217.101 158.449C216.25 158.697 215.362 158.273 214.587 157.844C208.175 154.3 202.428 149.558 197.731 143.936L188.334 155.366C193.156 161.26 198.794 166.486 205.036 170.849C196.728 181.112 184.141 187.797 170.985 188.933C184.603 189.627 198.389 183.239 206.665 172.402C211.904 175.344 217.408 177.813 223.089 179.77ZM266.156 79.2652C269.165 75.984 270.28 71.2972 270.023 66.8525C269.766 62.4078 268.271 58.1333 266.616 54C270.927 53.489 275.306 55.1152 278.739 57.7707C282.173 60.4263 284.752 64.0396 286.867 67.8298C289.432 72.4244 291.398 77.3925 292.251 82.5847C294.26 94.8102 289.971 107.275 283.866 118.056C282.681 120.15 281.405 122.229 279.675 123.9C277.932 125.583 275.789 126.792 273.592 127.813C264.527 132.025 254.099 133.24 244.308 131.226C250.559 126.023 254.973 118.854 257.784 111.222C260.595 103.591 261.882 95.4795 262.622 87.3805L262.627 87.3351C262.813 85.2929 263.01 83.1465 264.174 81.46C264.559 80.9017 265.036 80.4176 265.513 79.9333C265.73 79.713 265.947 79.4926 266.156 79.2652ZM254.845 112.998C252.148 119.306 247.97 125.099 242.305 128.971C241.642 129.424 240.93 129.861 240.132 129.955C239.427 130.037 238.722 129.843 238.045 129.629C233.229 128.109 228.679 125.415 225.59 121.42C224.468 119.97 223.553 118.371 222.737 116.731C216.79 104.782 216.207 90.2849 221.176 77.8975C221.414 77.3058 221.753 76.6414 222.378 76.5173C223.187 76.3568 223.808 77.1842 224.262 77.8723C227.974 83.4967 234.914 86.3441 241.647 86.639C248.379 86.9338 255.001 85.0205 261.385 82.8627C260.222 85.7077 259.925 88.8071 259.632 91.8772L259.632 91.8781L259.632 91.8789C259.595 92.265 259.558 92.6507 259.519 93.0353C258.835 99.862 257.542 106.689 254.845 112.998ZM253.475 54.3912C256.919 53.6081 260.939 53.3926 263.571 55.7489C264.421 56.51 265.053 57.4862 265.573 58.502C268.833 64.8732 267.556 73.2644 262.548 78.3774C256.759 84.2883 247.596 85.2628 239.352 84.5611C236.394 84.3094 233.352 83.8542 230.826 82.2932C227.559 80.2735 225.624 76.7145 223.835 73.3155C231.778 64.4392 241.859 57.0316 253.475 54.3912ZM281.336 161.542C280.255 164.271 279.164 167.037 278.81 169.951C278.456 172.865 278.917 175.992 280.689 178.332C265.983 179.145 251.039 174.611 239.265 165.762C243.061 160.389 246.06 154.453 248.131 148.208C248.949 145.742 252.072 144.713 254.608 145.284C256.942 145.81 258.902 147.307 260.813 148.768L261.05 148.948C261.135 149.014 261.221 149.079 261.306 149.144C267.566 153.896 274.464 157.728 281.336 161.542ZM178.574 198.809C176.255 201.42 173.483 203.588 170.652 205.632C164.742 209.899 158.297 213.778 151.113 215.018C140.586 216.835 129.213 212.294 122.831 203.727L145.792 195.161C146.342 194.956 146.912 194.748 147.497 194.781C147.828 194.8 148.147 194.895 148.466 194.99C148.678 195.053 148.891 195.117 149.108 195.158C149.845 195.297 150.588 195.175 151.335 195.052C151.8 194.975 152.266 194.899 152.733 194.885C154.451 194.833 156.031 195.618 157.594 196.396C157.99 196.593 158.386 196.79 158.783 196.972C164.871 199.772 171.892 199.319 178.574 198.809ZM145.42 100.566C145.258 100.204 145.429 99.7875 145.6 99.4297C150.302 89.5814 156.523 80.4598 163.975 72.4865C169.216 79.7643 172.704 88.2954 174.064 97.1605C174.335 98.9326 174.042 101.383 172.263 101.605C163.736 102.668 155.059 102.523 146.572 101.177C146.123 101.106 145.606 100.981 145.42 100.566ZM177.536 99.9583C175.78 90.306 172.136 81.0009 166.868 72.724C171.327 70.3768 176.597 70.3385 181.635 70.3542C184.817 70.3642 188.291 70.4763 190.716 72.5366L184.426 91.0964C183.358 94.2473 182.276 97.4865 182.411 100.811L178.435 100.874C178.293 100.877 178.147 100.878 178.016 100.823C177.698 100.691 177.598 100.298 177.536 99.9583ZM228.696 147.455C229.752 145.658 230.759 143.739 230.865 141.658C235.623 143.797 240.861 144.857 246.076 144.736C246.895 144.717 246.866 145.979 246.53 146.726C245.515 148.985 244.498 151.248 243.323 153.429C242.117 155.668 240.748 157.814 239.38 159.958L236.102 165.096C235.653 165.8 235.19 166.519 234.523 167.02C232.733 168.366 230.179 167.719 228.137 166.801C224.749 165.279 221.632 163.16 218.97 160.57C222.666 156.561 225.933 152.156 228.696 147.455ZM105.679 151.895C107.255 153.484 108.285 155.521 109.289 157.521L104.561 158.196C102.985 158.42 101.37 158.658 99.977 159.429C98.6222 160.178 97.5773 161.38 96.6578 162.625C92.8121 167.836 90.6806 174.29 90.6672 180.765C90.6623 183.104 87.8979 184.773 85.6354 184.18C83.3729 183.587 81.8359 181.34 81.4448 179.034C81.0536 176.728 81.6044 174.37 82.2952 172.135C84.7263 164.271 89.0748 156.844 95.5087 151.711C96.738 150.73 98.0962 149.812 99.6492 149.564C101.859 149.21 104.102 150.306 105.679 151.895ZM304.246 165.059C304.794 165.761 305.198 166.617 305.174 167.507C305.142 168.658 304.413 169.666 303.628 170.508C299.063 175.399 292.048 177.065 285.404 177.85C284.966 177.902 284.507 177.948 284.096 177.787C283.758 177.655 283.487 177.396 283.246 177.125C281.644 175.322 281.008 172.802 281.138 170.393C281.268 167.984 282.1 165.664 283.135 163.485C283.353 163.026 283.605 162.544 284.05 162.298C284.405 162.102 284.828 162.086 285.233 162.076L293.274 161.865C295.254 161.813 297.256 161.763 299.194 162.171C301.132 162.579 303.03 163.496 304.246 165.059ZM214.629 89.0801C211.352 83.0091 208.901 76.4934 207.363 69.7682L208.687 66.2325C210.325 63.0621 212.389 60.1124 214.807 57.4881C215.792 56.4192 217.499 56.301 218.858 56.816C220.217 57.331 221.31 58.3551 222.365 59.3546L227.112 63.8524C227.254 63.9861 227.401 64.1305 227.448 64.3192C227.537 64.6743 227.243 64.9996 226.978 65.2518C224.755 67.3655 222.779 69.7487 221.196 72.3758C218.802 76.3467 217.34 80.7965 215.898 85.2032L214.629 89.0801ZM226.762 54.9827C236.429 49.8057 247.001 44.934 257.905 46.099C263.605 46.7081 269.058 48.9759 273.806 52.1883C260.204 48.692 245.042 51.917 234.041 60.6466C232.341 61.9958 229.79 63.4613 228.276 61.9057C227.887 61.5064 227.633 60.9467 227.386 60.4015C226.989 59.5282 226.609 58.6918 225.72 58.61C224.873 58.532 224.496 57.3819 224.855 56.6103C225.215 55.8387 226.012 55.3846 226.762 54.9827ZM200.208 149.674C202.116 151.507 204.217 153.125 206.313 154.74L214.782 161.262C212.174 163.56 209.622 165.922 207.13 168.346C201.197 164.829 195.901 160.241 191.575 154.869C193.943 152.403 196.216 149.845 198.388 147.204C198.729 148.178 199.463 148.958 200.208 149.674ZM145.757 132.031C141.298 135.515 136.688 139.182 134.235 144.281C133.756 145.278 133.36 146.326 132.965 147.373L132.965 147.373C132.124 149.599 131.287 151.817 129.658 153.511C128.936 153.299 128.652 152.447 128.476 151.716L126.779 144.658C126.55 143.706 126.319 142.727 126.449 141.756C126.579 140.79 127.055 139.91 127.523 139.055L132.502 129.957C132.613 129.754 132.728 129.546 132.906 129.398C133.346 129.032 133.998 129.149 134.554 129.285L145.757 132.031ZM218.197 163.285C221.238 166.412 225.018 168.815 229.139 170.243C229.909 169.518 231.399 169.918 231.703 170.932C230.285 172.772 228.728 174.504 227.05 176.111C226.3 176.828 225.1 176.677 224.089 176.445C219.15 175.311 214.393 173.39 210.052 170.776C209.761 170.601 209.434 170.353 209.463 170.015C209.482 169.788 209.661 169.611 209.829 169.457L215.924 163.843C216.563 163.255 217.592 162.662 218.197 163.285ZM296.014 84.8687C295.957 85.5566 295.861 86.3242 295.323 86.7568C295.318 81.3537 293.978 75.9567 291.455 71.1788C290.998 70.3122 290.502 69.4652 289.95 68.6554C289.925 68.6193 289.901 68.5833 289.876 68.5472L289.797 68.4325L289.734 68.3425C289.178 67.5389 288.608 66.7165 288.473 65.757L295.004 72.5795C295.604 73.2073 296.222 73.8622 296.507 74.6834C296.781 75.4753 296.715 76.3391 296.646 77.1743L296.014 84.8687ZM288.51 76.1985L287.031 74.3343C285.404 72.2833 283.407 70.0437 280.789 70.0409C279.27 70.0392 277.872 70.8172 276.554 71.5731L274.507 72.7475C273.947 73.0683 273.373 73.4019 272.978 73.9121C271.841 75.3835 272.671 77.5334 273.746 79.051C274.49 80.1011 275.381 81.1095 276.565 81.6148C278.096 82.2686 279.857 81.9795 281.461 81.5369C283.659 80.9309 285.782 80.0565 287.769 78.9395C288.404 78.5824 289.107 78.0591 289.074 77.3309C289.056 76.9021 288.777 76.5347 288.51 76.1985ZM275.589 77.6373C275.334 77.2322 275.071 76.7993 275.067 76.3208C275.059 75.3852 275.993 74.7573 276.814 74.3093L279.733 72.7171C280.175 72.4763 280.634 72.2302 281.136 72.1963C281.637 72.1625 282.195 72.404 282.364 72.8778C282.861 74.2756 284.088 75.3905 285.527 75.7532C285.993 75.8706 286.142 76.5154 285.922 76.9423C285.702 77.3693 285.251 77.6188 284.821 77.8323C283.283 78.5958 281.674 79.2184 280.022 79.6896C279.36 79.8786 278.659 80.0438 277.99 79.8846C276.894 79.6241 276.188 78.5908 275.589 77.6373ZM254.823 92.0486C251.928 92.3857 251.377 97.6056 252.722 100.39C252.998 100.963 253.431 101.552 254.062 101.632C255.141 101.769 255.737 100.438 255.976 99.3772L255.982 99.3524C256.296 97.9541 257.701 91.7136 254.823 92.0486ZM239.892 98.8961C240.471 97.5457 240.664 96.0324 240.443 94.5799C240.34 93.905 240.137 93.2198 239.686 92.7073C239.235 92.1949 238.49 91.8969 237.848 92.1279C237.266 92.337 236.901 92.9058 236.626 93.4589C235.654 95.4117 235.267 97.6506 235.526 99.8163C235.647 100.824 236.916 101.374 237.88 101.056C238.843 100.737 239.492 99.8286 239.892 98.8961ZM248.427 95.8056C248.876 95.4332 249.443 96.1096 249.626 96.664C250.225 98.4862 250.721 100.342 251.111 102.221C251.357 103.408 251.561 104.641 251.298 105.824C250.928 107.493 249.66 108.85 248.188 109.719C246.717 110.589 245.042 111.039 243.39 111.479C242.954 111.595 242.406 111.678 242.124 111.326C241.885 111.026 242.003 110.557 242.275 110.287C242.542 110.023 242.914 109.901 243.272 109.783L243.293 109.776C245.867 108.931 248.618 107.404 249.218 104.762C249.547 103.309 249.146 101.849 248.744 100.383C248.377 99.0478 248.009 97.7076 248.19 96.3627C248.218 96.1578 248.268 95.9375 248.427 95.8056ZM230.448 89.8616C229.77 88.9226 230.313 87.4956 231.296 86.8832C232.279 86.2708 233.522 86.2791 234.67 86.4274C236.042 86.6044 237.391 86.9532 238.676 87.463C238.949 87.5715 239.244 87.7097 239.364 87.9783C239.588 88.4757 239.01 89.0202 238.465 89.0198C238.027 89.0194 237.629 88.8082 237.236 88.5994C237.14 88.5489 237.045 88.4984 236.95 88.4512C234.805 87.3865 231.96 88.0036 230.448 89.8616ZM255.176 89.538C256.196 89.3685 257.277 89.6039 258.134 90.182C258.492 90.4237 259.005 90.0172 259.007 89.5852C259.009 89.1532 258.687 88.7898 258.347 88.5227C257.616 87.9473 256.705 87.6029 255.776 87.5504C255.176 87.5166 254.513 87.6325 254.126 88.0924C253.74 88.5524 253.857 89.4155 254.436 89.5757C254.642 89.6328 254.859 89.5942 255.072 89.5562L255.116 89.5484C255.136 89.5449 255.156 89.5414 255.176 89.538ZM242.522 116.029C242.809 115.867 243.188 116.15 243.23 116.477C243.273 116.803 243.087 117.116 242.874 117.367C241.805 118.629 239.962 119.018 238.335 118.722C236.708 118.426 235.25 117.551 233.878 116.629C233.233 116.195 232.597 115.747 231.971 115.285C231.323 114.806 230.632 114.22 230.555 113.418C230.477 112.615 231.505 111.807 232.091 112.359C233.534 113.717 235.009 115.098 236.803 115.938C238.597 116.779 240.797 117.003 242.522 116.029ZM211.638 122.461C205.629 109.399 203.122 94.7454 204.447 80.4285C204.47 80.1838 204.501 79.9219 204.663 79.7368C204.891 79.4758 205.358 79.4867 205.574 79.7581C205.497 87.6337 205.424 95.5568 206.709 103.327C207.995 111.098 210.725 118.785 215.709 124.883C215.857 125.065 216.008 125.245 216.158 125.426L216.161 125.429C217.018 126.457 217.883 127.493 218.369 128.733C215.128 128.671 212.993 125.406 211.638 122.461ZM217.532 63.4773C217.421 63.3572 217.292 63.2511 217.142 63.1863C216.708 62.9992 216.2 63.191 215.821 63.4719C214.308 64.5915 214.302 67.2096 215.81 68.3361C216.545 67.7096 217.3 67.0586 217.731 66.194C218.162 65.3294 218.188 64.1868 217.532 63.4773ZM230.574 77.2712C232.205 78.5944 234.062 79.6367 236.041 80.3385C242.427 82.603 249.604 81.1812 255.766 78.3644C256.708 77.9341 257.909 78.161 258.629 78.905C254.672 81.7247 249.825 83.2746 244.966 83.2735C243.894 83.2733 242.824 83.1999 241.757 83.1066C239.573 82.9158 237.372 82.6359 235.318 81.871C233.263 81.1061 231.345 79.8121 230.181 77.9537L230.574 77.2712ZM300.116 163.339C300.052 163.556 300.227 163.764 300.388 163.924L302.814 166.332C303.079 165.639 302.782 164.833 302.273 164.294C301.764 163.755 301.077 163.427 300.406 163.111C300.275 163.117 300.152 163.213 300.116 163.339Z" fill="#00160A"/>
<path fill-rule="evenodd" clip-rule="evenodd" d="M459.471 69.6751C462.444 70.7053 465.244 68.0245 467.805 66.1982C471.769 63.3721 476.94 62.3036 481.699 63.327C482.488 63.4968 483.315 63.7516 483.835 64.3695C484.311 64.9344 484.446 65.7051 484.523 66.4396C484.991 70.9354 483.867 75.5811 481.395 79.3652C480.192 81.2062 478.685 82.8453 477.61 84.7633C476.534 86.6813 475.92 89.0246 476.686 91.0858C481.242 103.34 479.346 117.794 471.784 128.459C464.221 139.124 451.209 145.696 438.137 145.451C431.452 145.326 424.903 143.542 418.604 141.298C415.856 140.319 412.835 139.245 410.107 140.279C405.13 142.165 399.889 143.356 394.585 143.807C393.269 143.919 391.894 143.976 390.68 143.457C388.862 142.679 387.764 140.708 387.556 138.741C387.347 136.775 387.891 134.807 388.577 132.953C390.648 127.359 397.078 118.622 400.97 116.609C400.656 109.817 400.69 102.945 402.159 96.3056C403.627 89.6665 406.624 83.2243 411.54 78.5267C413.571 76.5864 415.894 74.9715 418.328 73.5701C430.639 66.4822 446.049 65.0233 459.471 69.6751ZM440.724 69.1236C431.31 69.344 422.146 73.1255 414.787 79.0004C412.626 80.7253 410.596 82.6417 408.974 84.8808C407.695 86.6459 406.684 88.5936 405.84 90.6027C400.828 102.524 401.972 116.847 408.813 127.822C408.962 128.061 409.133 128.314 409.4 128.407C409.728 128.522 410.081 128.355 410.388 128.191C431.876 116.741 451.001 100.881 466.232 81.8855C466.595 81.4331 466.977 80.9076 466.898 80.3331C466.84 79.9021 466.532 79.5521 466.232 79.2373C459.733 72.4232 450.137 68.9033 440.724 69.1236ZM453.885 140.29C464.09 135.498 471.842 126.03 475.157 115.254C475.908 112.814 476.447 110.291 476.5 107.739C476.545 105.592 476.245 103.455 475.947 101.329C475.513 98.2466 475.08 95.1642 474.647 92.0818C474.532 91.2646 473.745 90.1859 473.17 90.7777C457.201 107.211 439.764 122.217 421.135 135.558C420.515 136.002 419.833 136.551 419.799 137.313C419.761 138.195 420.602 138.834 421.366 139.275C431.133 144.908 443.679 145.081 453.885 140.29ZM390.932 139.035C391.675 140.226 393.284 140.47 394.687 140.509C402.046 140.712 409.328 138.556 415.912 135.262C422.497 131.968 428.457 127.563 434.248 123.017C441.973 116.954 449.467 110.6 456.771 104.036C465.816 95.9065 474.703 87.2835 480.642 76.6704C481.791 74.6174 482.851 72.3664 482.671 70.0208C482.492 67.6752 480.621 65.3071 478.27 65.3988C473.282 65.5933 468.377 67.5113 464.58 70.7522C463.825 71.3967 464.358 72.7687 465.288 73.1176C466.217 73.4665 467.253 73.1198 468.161 72.7189C469.07 72.318 470.015 71.8492 471.002 71.9589C472.51 72.1265 473.58 73.6697 473.67 75.1837C473.76 76.6977 473.09 78.1529 472.301 79.4482C470.841 81.8455 468.935 83.9352 467.008 85.9764C449.882 104.121 430.125 119.778 408.549 132.308C406.606 133.436 404.64 134.543 402.549 135.365C401.452 135.797 400.195 136.143 399.124 135.65C397.369 134.841 397.228 132.377 397.755 130.517C398.545 127.725 400.254 125.202 402.552 123.43C402.117 122.204 401.682 120.977 401.246 119.751C395.573 123.375 391.592 129.538 390.621 136.2C390.481 137.161 390.418 138.211 390.932 139.035ZM407.063 130.619C407.103 130.492 407.03 130.36 406.959 130.248C406.226 129.084 405.493 127.919 404.76 126.755C404.429 126.228 403.787 125.631 403.29 126.006C401.498 127.355 400.216 129.364 399.747 131.558C399.654 131.99 399.6 132.473 399.836 132.848C400.275 133.545 401.322 133.39 402.097 133.112C403.749 132.52 405.341 131.759 406.839 130.844C406.931 130.787 407.03 130.722 407.063 130.619ZM470.819 75.1872C470.745 74.8847 470.385 74.7533 470.074 74.7397C469.129 74.6986 468.143 75.4749 468.203 76.4182C468.262 77.3615 469.664 77.9555 470.25 77.2137C470.427 76.9898 470.502 76.7043 470.572 76.4278C470.642 76.1539 470.712 75.8799 470.782 75.606C470.817 75.4688 470.852 75.3248 470.819 75.1872Z" fill="#00160A"/>
<path d="M149.312 225.671C146.311 226.793 150.677 252.541 148.699 253.521C146.721 254.501 130.544 259.963 130.974 262.304C131.404 264.645 156.247 268.753 157.19 270.657C158.134 272.562 162.958 292.975 164.892 293.749C166.827 294.523 169.113 269.128 170.686 268.804C172.259 268.481 199.385 277.934 199.976 276.364C200.566 274.795 180.326 261.747 179.31 259.697C178.294 257.646 191.465 234.336 191.839 232.144C192.212 229.952 173.748 241.109 170.818 242.561C167.889 244.012 152.314 224.548 149.312 225.671Z" stroke="white" stroke-width="3" stroke-linecap="round"/>
<path d="M57.5239 40.0565C55.119 36.8421 58.7115 15.2994 55.2735 16.2539C51.8355 17.2083 40.1699 30.3013 38.1075 29.1419C36.045 27.9825 19.2565 11.5603 19.289 14C19.3216 16.4397 28.2141 37.0845 26.5915 39.8045C24.9689 42.5245 10.08 53.5261 12.1425 54.6856C14.2051 55.845 35.0923 50.8229 37.7865 52.5236C40.4807 54.2244 49.6336 77.9026 51.8999 77.0345C54.1662 76.1665 53.0731 57.2983 55.0404 55.7966C57.0078 54.2948 83.5125 50.1022 80.881 48.6229C78.2495 47.1437 59.9288 43.271 57.5239 40.0565Z" stroke="white" stroke-width="5" stroke-linecap="round"/>
<path d="M267 220.498C267 220.498 444.87 172.838 449.992 171.466C455.115 170.093 350.853 209.144 344.792 211.251C338.73 213.358 452.498 190.002 457.797 188.582C463.096 187.162 373.628 219.953 378.397 218.676C383.166 217.398 493.654 193.108 493.654 193.108" stroke="white" stroke-width="4" stroke-linecap="round"/>
</svg>
