<svg width="673" height="444" viewBox="0 0 673 444" fill="none" xmlns="http://www.w3.org/2000/svg">
<path d="M608.479 189.497C631.513 145.061 655.37 79.23 588.566 26.712C521.759 -25.8106 455.784 13.7193 424.747 42.3006C406.84 58.7908 390.538 77.9215 376.263 94.674C367.94 104.441 360.307 113.399 353.446 120.554C307.204 168.776 260.724 181.607 195.901 199.501C170.633 206.477 142.578 214.221 110.663 225.132C23.815 254.824 11.3191 282.767 21.3761 308.736C24.5972 307.385 27.9731 306.051 31.4981 304.736C90.1485 282.861 190.107 266.36 306.098 266.36C454.204 266.36 608.237 319.879 665.87 362.749C657.083 345.083 634.286 326.144 613.418 308.807C596.429 294.693 580.718 281.641 574.888 271.204C563.217 250.312 570.996 240.865 584.171 224.861C591.42 216.057 600.303 205.268 608.479 189.497Z" fill="#F25E9C"/>
<path d="M609.336 431.223L608.55 431.244L605.095 431.316C489.897 433.542 256.86 418.831 109.026 399.743C109.024 399.742 109.022 399.741 109.019 399.74L109 399.74C109.009 399.741 109.018 399.742 109.026 399.743C168.363 423.683 252.574 439.839 338.999 440.085C410.501 440.29 459.615 441.441 494.754 442.265C568.532 443.994 580.699 444.279 609.121 431.322L609.336 431.223Z" fill="#F25E9C"/>
<path fill-rule="evenodd" clip-rule="evenodd" d="M312.964 286.42L315.79 286.602L311.607 353.695L309.591 356.232L306.492 354.105L312.964 286.42Z" fill="white"/>
<circle cx="526.057" cy="122.554" r="78.2548" fill="white"/>
<path fill-rule="evenodd" clip-rule="evenodd" d="M321.203 198.81C321.203 198.81 321.029 194.32 326.38 194.056C331.727 193.791 375.401 198.81 375.401 198.81C375.401 198.81 384.799 200.164 383.247 210.724C381.691 221.285 376.018 245.622 376.018 245.622C376.018 245.622 376.684 249.785 369.86 248.68C363.036 247.575 342.776 242.307 321.203 245.651C321.203 245.651 317.64 246.069 317.744 261.219L315.79 260.859C315.79 260.859 318.642 203.06 321.203 198.81Z" fill="white"/>
<path fill-rule="evenodd" clip-rule="evenodd" d="M353.258 163.077C353.68 162.626 353.258 163.077 353.258 163.077C351.544 164.914 350.088 166.549 349.148 167.728C344.667 173.364 338.662 178.707 336.237 182.791C336.237 182.791 325.503 187.683 321.203 182.597C321.203 182.597 331.064 169.665 338.886 163.888C338.886 163.888 346.483 160.147 353.258 163.077V163.077ZM361.592 154.453V154.453L353.655 152.148C353.655 152.148 361.704 147.132 366.165 145.233L369.86 146.234C369.86 146.234 366.041 149.967 361.592 154.453C361.592 154.453 361.48 154.573 361.592 154.453Z" fill="white"/>
<path fill-rule="evenodd" clip-rule="evenodd" d="M229.811 369.578C229.811 369.578 215.848 366.482 212.525 350.517C212.525 350.517 215.07 345.911 225.048 335.247C225.048 335.247 237.661 327.149 235.584 314.312C235.584 314.312 221.824 310.745 226.426 289.839L229.36 284.48C229.36 284.48 226.111 261.268 228.863 247.525C228.863 247.525 226.318 229.996 236.92 228.738C236.92 228.738 241.381 228.084 241.874 226.338C241.874 226.338 235.343 208.25 254.462 199.481C273.576 190.716 288.449 205.816 287.849 221.91C287.849 221.91 286.194 232.926 279.449 237.854C279.449 237.854 293.936 246.917 302.002 258.831C302.002 258.831 311.019 268.183 314.983 266.607C314.983 266.607 327.071 266.342 325.424 270.567C323.781 274.788 322.623 280.838 304.923 281.757C304.923 281.757 287.812 279.563 283.351 279.439L280.214 278.343C280.214 278.343 284.075 286.532 279.875 294.341C275.674 302.146 272.62 304.848 273.072 306.363L282.374 349.863C282.374 349.863 281.704 357.209 289.926 355.922C298.149 354.631 295.968 359.65 294.33 360.854C292.691 362.063 279.142 373.65 267.771 358.872C256.399 344.091 254.727 341.053 254.727 341.053L231.987 356.973C231.987 356.973 230.22 358.69 231.507 362.688C231.507 362.688 233.965 368.605 229.811 369.578Z" fill="white"/>
<path fill-rule="evenodd" clip-rule="evenodd" d="M437.83 128.892C433.776 37.8398 527.498 42.2708 527.698 42.3005C639.598 58.8533 612.964 200.809 526.245 205.3C526.185 205.304 441.328 207.462 437.83 128.892ZM441.045 128.784C438.603 73.9411 474.746 55.9295 500.995 50.0701C501.084 50.1634 501.199 50.2634 501.334 50.3704C503.138 51.8064 504.926 53.1281 507.351 53.5949C508.773 53.8685 510.15 54.3663 511.528 54.8646L511.529 54.8647C512.591 55.249 513.655 55.6337 514.742 55.916C516.18 56.2898 517.676 56.4567 519.167 56.6232C519.598 56.6713 520.028 56.7193 520.456 56.7722C520.852 56.8211 521.255 56.8236 521.657 56.826C522.164 56.8291 522.67 56.8322 523.159 56.9282C523.805 57.0552 524.442 57.2372 525.078 57.419C525.867 57.6443 526.654 57.8693 527.458 57.9888C528.029 58.0738 528.621 58.0445 529.211 58.0154C529.917 57.9805 530.62 57.9458 531.278 58.1072C533.007 58.5314 534.686 59.1831 536.358 59.8323C536.595 59.924 536.831 60.0158 537.067 60.1068L537.444 60.252L537.444 60.2522C539.216 60.935 540.998 61.6219 542.683 62.4867C544.301 63.3172 545.811 63.1546 546.672 61.7021C547.984 59.4931 549.362 57.4339 552.283 57.1649C552.849 57.1126 553.399 56.8717 553.948 56.6311C554.199 56.5215 554.449 56.4119 554.7 56.3203L554.404 56.2038C553.679 55.9188 552.955 55.634 552.234 55.3412C552.22 55.336 552.223 55.3001 552.226 55.2606C552.229 55.2153 552.233 55.1654 552.213 55.1517C550.471 53.8788 547.582 54.9208 546.606 56.7946C546.006 57.9483 544.847 59.0929 543.664 59.5949C542.454 60.1075 541.435 59.4716 540.357 58.799L540.356 58.7986C539.912 58.5212 539.457 58.2375 538.975 58.0257C536.91 57.4087 535.048 56.7983 533.194 56.1722C532.612 55.9758 532.033 55.7658 531.455 55.5558L531.453 55.5553L531.453 55.555C530.219 55.1072 528.986 54.6596 527.719 54.3456C527.084 54.1879 526.411 54.1992 525.735 54.2106C525.208 54.2194 524.679 54.2283 524.164 54.1573C523.15 54.0166 522.141 53.8293 521.132 53.642L521.131 53.6419C520.013 53.4341 518.894 53.2264 517.767 53.0822C517.02 52.9867 516.254 52.9656 515.492 52.9446C514.252 52.9104 513.018 52.8764 511.878 52.5231C511.461 52.3936 511.056 52.2445 510.654 52.096C509.599 51.7071 508.556 51.3225 507.322 51.3048C506.229 51.2891 504.955 50.5376 504.11 49.7443C504.002 49.6421 503.897 49.5554 503.795 49.4822C517.086 46.8656 527.206 47.3152 527.269 47.3249C628.444 62.9877 607.617 197.028 526.245 201.242C526.189 201.245 444.327 202.509 441.045 128.784ZM212.795 355.695L212.88 355.944C213.406 357.483 214.303 358.895 215.226 360.349C215.586 360.917 215.95 361.491 216.298 362.081C216.522 362.355 216.726 362.624 216.922 362.883L216.922 362.884L216.922 362.884L216.923 362.885L216.923 362.885L216.923 362.885L216.923 362.885C217.277 363.353 217.606 363.789 217.993 364.166C220.459 366.571 223.153 368.677 226.357 370.018C226.571 370.109 226.847 370.055 227.123 370.002C227.399 369.949 227.675 369.896 227.887 369.989C230.763 371.259 233.617 369.629 233.502 366.459C233.462 365.37 233.136 364.293 232.808 363.212C232.579 362.457 232.35 361.7 232.216 360.934C232.079 360.14 232.219 359.122 232.628 358.443C233.702 356.664 235.407 355.58 237.204 354.524C238.052 354.027 238.773 353.32 239.497 352.611L239.497 352.611L239.497 352.611L239.497 352.611L239.498 352.61L239.498 352.61L239.498 352.61L239.499 352.609C240.063 352.057 240.628 351.502 241.257 351.044C242.256 350.318 243.317 349.68 244.379 349.041C245.156 348.574 245.933 348.107 246.686 347.605C247.204 347.259 247.69 346.872 248.176 346.487C249.321 345.578 250.463 344.672 252.015 344.282C253.979 343.794 256.03 344.415 257.199 346.244C257.7 347.027 258.295 347.75 258.89 348.472C259.342 349.021 259.794 349.57 260.206 350.146C261.204 351.541 262.144 352.985 263.022 354.458C263.375 355.048 263.682 355.674 263.989 356.299L263.989 356.299C264.521 357.382 265.051 358.463 265.813 359.35C266.851 360.557 268.045 361.629 269.241 362.703C270.053 363.433 270.866 364.163 271.632 364.936C273.788 367.113 276.566 367.684 279.378 367.924C280.822 368.043 282.283 367.76 283.709 367.483L283.709 367.483C284.604 367.309 285.486 367.138 286.34 367.071C287.471 366.984 288.371 366.537 289.255 366.099C290.079 365.691 290.888 365.29 291.855 365.193C292.761 365.101 293.598 364.334 294.435 363.566C294.809 363.223 295.183 362.881 295.563 362.598C297.962 360.814 298.041 357.504 295.641 355.82C295.396 355.649 295.033 355.636 294.674 355.623C294.301 355.609 293.93 355.596 293.699 355.406C291.853 353.895 289.876 354.297 287.855 354.735C286.069 355.12 283.895 353.142 283.92 351.326C283.93 350.586 283.733 349.838 283.538 349.102L283.538 349.102C283.488 348.911 283.437 348.721 283.391 348.532C283.278 348.066 283.135 347.605 282.992 347.144L282.992 347.143C282.736 346.315 282.48 345.489 282.397 344.646C282.324 343.907 282.144 343.194 281.964 342.48C281.728 341.545 281.491 340.608 281.496 339.61C281.499 339.012 281.267 338.419 281.033 337.82C280.861 337.38 280.688 336.937 280.607 336.486C280.488 335.835 280.441 335.172 280.394 334.509V334.509V334.509C280.344 333.819 280.295 333.13 280.167 332.455C279.993 331.544 279.764 330.643 279.536 329.744L279.536 329.743L279.535 329.742C279.277 328.722 279.018 327.703 278.84 326.67C278.708 325.905 278.707 325.118 278.707 324.329C278.706 323.817 278.706 323.305 278.67 322.797C278.648 322.498 278.647 322.174 278.646 321.848C278.643 320.928 278.64 319.979 278.178 319.457C277.61 318.818 277.634 318.152 277.659 317.473C277.679 316.907 277.7 316.333 277.38 315.758C276.767 314.656 276.731 313.225 276.696 311.805V311.804C276.683 311.273 276.669 310.743 276.626 310.233C276.596 309.881 276.638 309.486 276.68 309.097V309.096V309.096V309.096V309.096V309.095V309.095V309.095V309.094V309.094V309.094V309.094V309.093V309.093V309.093V309.092V309.092V309.092V309.092C276.751 308.426 276.821 307.781 276.525 307.403C275.44 306.022 276.065 304.651 276.527 303.636C276.554 303.578 276.58 303.52 276.605 303.464C277.36 301.786 278.258 300.172 279.156 298.558L279.156 298.557C280.118 296.828 281.079 295.1 281.865 293.293C282.596 291.611 282.829 289.692 283.057 287.808C283.103 287.431 283.149 287.054 283.198 286.682C283.287 286.009 283.262 285.319 283.237 284.631V284.631V284.63V284.63V284.63V284.63V284.629V284.629V284.629V284.629V284.628V284.628V284.628V284.628V284.628V284.627V284.627V284.627V284.627V284.626V284.626V284.626C283.21 283.86 283.182 283.095 283.312 282.356C283.405 281.832 284.125 281.382 284.735 281C284.827 280.943 284.917 280.887 285.001 280.832C285.063 280.793 285.202 280.915 285.37 281.062C285.565 281.232 285.798 281.436 285.993 281.461C286.547 281.533 287.153 281.527 287.755 281.521C288.926 281.51 290.083 281.498 290.817 282.056C292.134 283.056 293.516 283.003 294.835 282.952C295.38 282.931 295.915 282.911 296.429 282.966C299.315 283.272 302.253 283.091 305.191 282.91L305.191 282.91L305.192 282.91L305.193 282.91L305.193 282.91L305.194 282.91L305.195 282.91L305.195 282.91L305.196 282.91L305.197 282.91L305.197 282.91L305.198 282.91L305.198 282.909L305.199 282.909L305.2 282.909L305.2 282.909L305.201 282.909L305.202 282.909L305.202 282.909C306.353 282.838 307.504 282.767 308.652 282.726C309.411 282.699 310.177 282.668 310.925 282.548C314.649 281.947 318.309 281.078 321.255 278.56C322.165 277.783 322.928 276.834 323.691 275.885C324.011 275.488 324.331 275.091 324.661 274.707C325.539 273.684 325.869 272.519 326.243 271.187C326.936 268.722 325.396 265.63 322.729 265.829C321.633 265.91 320.892 265.567 320.011 265.144C319.485 264.891 318.776 264.887 318.169 264.955C317.749 265.003 317.326 265.083 316.904 265.164C315.192 265.49 313.498 265.813 312.124 263.891C311.837 263.489 311.271 263.272 310.726 263.063C310.566 263.002 310.409 262.941 310.26 262.877C309.953 262.744 309.619 262.646 309.287 262.549C308.693 262.376 308.104 262.204 307.684 261.834C305.957 260.315 304.349 258.649 302.794 256.95C301.999 256.082 301.246 255.175 300.493 254.268L300.493 254.267L300.492 254.267L300.492 254.267L300.492 254.267L300.492 254.267L300.492 254.266L300.491 254.266L300.491 254.266L300.491 254.266L300.491 254.266L300.491 254.266L300.491 254.265L300.49 254.265L300.49 254.265L300.49 254.265L300.49 254.265L300.49 254.264L300.489 254.264L300.489 254.264L300.489 254.264L300.489 254.264C299.711 253.326 298.932 252.389 298.108 251.495C296.482 249.73 294.778 248.028 293.013 246.402C291.564 245.067 290.018 243.824 288.434 242.65C287.282 241.797 286.042 241.06 284.806 240.324L284.453 240.114C282.816 239.138 282.681 237.42 282.645 235.879C282.637 235.518 283.279 235.142 283.922 234.766C284.218 234.592 284.514 234.419 284.747 234.247C284.801 234.206 284.86 234.158 284.892 234.1C285.164 233.605 285.438 233.111 285.713 232.616C286.521 231.158 287.33 229.7 288.096 228.219C288.295 227.835 288.373 227.387 288.451 226.941V226.941L288.451 226.941L288.451 226.94C288.48 226.776 288.508 226.611 288.543 226.45C288.665 225.884 288.807 225.317 288.949 224.751C289.322 223.265 289.694 221.779 289.71 220.29C289.718 219.558 289.568 218.567 289.424 217.706C289.151 216.073 288.863 214.434 288.416 212.844C288.256 212.274 287.979 211.738 287.701 211.201C287.49 210.792 287.278 210.382 287.117 209.955C286.919 209.433 286.777 208.87 286.636 208.309L286.636 208.309C286.371 207.263 286.109 206.224 285.492 205.467C284.931 204.779 284.462 204.01 283.992 203.24L283.991 203.239L283.991 203.239C282.897 201.446 281.798 199.643 279.526 198.835C278.61 198.508 277.742 198.006 276.878 197.506C275.724 196.838 274.579 196.176 273.341 195.946C270.149 195.352 266.808 195.406 263.534 195.461C260.955 195.505 258.276 195.615 255.844 196.359C254.091 196.896 252.321 197.761 250.642 198.886C250.336 199.091 250.025 199.295 249.712 199.499C248.11 200.545 246.472 201.614 245.424 203.02C245.02 203.562 244.554 204.081 244.084 204.605C242.664 206.185 241.206 207.808 241.303 210.24C239.707 211.149 239.661 212.711 239.619 214.16C239.606 214.613 239.593 215.055 239.534 215.462L239.527 215.509C239.278 217.202 239.011 219.014 239.399 221.013C239.874 223.461 240.412 225.659 241.69 227.761C242.446 229.005 243.07 230.327 240.974 231.018C240.681 231.115 240.32 231.369 240.222 231.635C239.723 232.993 239.049 234.223 237.611 234.707C236.292 235.152 236.39 236.076 236.487 236.983C236.512 237.215 236.537 237.447 236.537 237.668C236.538 237.786 237.642 238.167 237.911 237.975C238.729 237.388 239.519 236.762 240.31 236.136L240.31 236.136L240.311 236.135L240.311 236.135L240.312 236.135L240.312 236.134L240.313 236.134L240.313 236.133C241.398 235.275 242.481 234.416 243.634 233.662C244.33 233.207 245.557 233.143 246.383 233.402C247.28 233.683 248.122 234.131 248.966 234.58L248.966 234.58C249.48 234.853 249.994 235.126 250.521 235.363C251.88 235.971 253.252 236.55 254.624 237.128L254.624 237.128C255.342 237.43 256.059 237.733 256.775 238.04C257.709 238.44 257.879 238.965 257.009 239.641C256.562 239.989 256.113 240.335 255.665 240.681L255.655 240.688L255.655 240.688L255.655 240.689L255.654 240.689L255.654 240.689L255.653 240.69L255.653 240.69L255.653 240.69L255.652 240.691L255.652 240.691L255.651 240.691L255.651 240.692L255.651 240.692L255.65 240.692L255.65 240.692L255.649 240.693L255.649 240.693L255.648 240.693L255.648 240.694L255.648 240.694L255.647 240.694C254.479 241.596 253.312 242.497 252.163 243.422C248.973 245.994 247.368 249.563 246.928 253.43C246.625 256.101 246.921 259.041 247.775 261.583C248.45 263.592 249.829 265.397 251.173 267.157L251.173 267.157L251.176 267.16C251.416 267.475 251.655 267.787 251.889 268.1C253.634 270.432 256.118 271.814 258.589 273.189C259.296 273.582 260.002 273.975 260.688 274.389C262.278 275.346 264.121 275.935 265.911 276.491C266.791 276.764 267.704 276.932 268.616 277.1L268.617 277.1C269.346 277.234 270.076 277.368 270.791 277.556C271.444 277.728 272.079 277.969 272.714 278.209C273.306 278.433 273.897 278.657 274.504 278.826C275.597 279.13 276.705 279.379 277.813 279.628L277.813 279.628L277.815 279.629L277.816 279.629L277.818 279.629L277.819 279.63L277.821 279.63L277.822 279.631L277.824 279.631C278.372 279.754 278.92 279.877 279.467 280.007C279.474 280.009 279.478 280.02 279.48 280.036C279.482 280.047 279.483 280.061 279.484 280.076L279.484 280.077C279.487 280.12 279.491 280.169 279.512 280.186C280.249 280.77 281.287 285.17 281.002 286.021C280.484 287.565 280.044 289.136 279.605 290.706L279.604 290.708L279.515 291.026C279.42 291.366 279.36 291.723 279.3 292.079L279.3 292.079C279.192 292.721 279.085 293.359 278.775 293.881L278.481 294.378C277.126 296.671 275.757 298.987 274.074 301.028C272.4 303.057 270.445 304.969 267.951 306.034C267.464 306.243 267.046 306.563 266.623 306.887C265.756 307.552 264.874 308.228 263.348 307.961C262.528 307.818 261.525 308.71 260.526 309.599C260.085 309.991 259.645 310.383 259.221 310.684C259.118 310.756 259.041 310.866 258.963 310.976C258.928 311.024 258.894 311.073 258.857 311.119C258.874 311.124 258.89 311.129 258.907 311.134L258.932 311.143L258.953 311.15L258.97 311.157L258.99 311.164L259.036 311.181C259.16 311.229 259.284 311.276 259.409 311.276C259.838 311.281 260.27 311.269 260.701 311.258C261.586 311.233 262.47 311.209 263.332 311.334C264.17 311.454 265.667 312.153 265.629 312.418C265.43 313.801 265.349 315.191 265.268 316.585V316.585C265.138 318.818 265.007 321.06 264.386 323.297C263.994 324.705 263.358 325.97 262.726 327.227C262.246 328.18 261.769 329.129 261.401 330.134C260.434 332.778 258.072 335.1 255.874 337.065C253.994 338.749 251.909 340.205 249.825 341.66C248.785 342.387 247.745 343.113 246.729 343.868C245.524 344.769 244.342 345.7 243.16 346.632C242.472 347.173 241.785 347.715 241.092 348.251L240.885 348.41C239.826 349.227 238.765 350.044 237.68 350.829C237.239 351.147 236.805 351.482 236.37 351.817C235.234 352.693 234.096 353.57 232.826 354.16C230.785 355.104 229.527 356.651 229.543 358.621C229.555 360.062 229.946 361.497 230.338 362.935L230.338 362.935C230.534 363.653 230.73 364.372 230.879 365.093C230.969 365.525 230.975 365.974 230.981 366.423C230.984 366.629 230.986 366.834 230.997 367.038C230.583 367.026 230.157 367.045 229.73 367.064C228.768 367.108 227.805 367.151 226.986 366.827C226.004 366.44 225.116 365.827 224.225 365.212C223.6 364.781 222.974 364.349 222.313 363.993C219.933 362.71 218.624 360.533 217.37 358.327C216.474 356.748 215.726 355.078 214.984 353.418L214.882 353.192C214.856 353.134 214.829 353.073 214.8 353.011C214.506 352.363 214.13 351.535 214.358 351.09C215.107 349.633 216.091 348.272 217.135 346.997C219.206 344.466 221.342 341.988 223.478 339.51L224.216 338.654C224.521 338.299 224.82 337.934 225.119 337.569C225.984 336.511 226.853 335.45 227.901 334.62C230.771 332.348 233.072 329.67 235.087 326.629C236.656 324.258 237.272 321.874 236.686 319.126C236.65 318.951 236.765 318.746 236.88 318.54C236.934 318.443 236.988 318.347 237.027 318.253C236.534 318.128 236.041 318.003 235.548 317.877L235.528 317.872L235.508 317.867C235.016 317.741 234.524 317.616 234.032 317.492C233.984 317.695 233.918 317.901 233.851 318.107C233.706 318.553 233.561 319 233.606 319.428C233.956 322.772 232.89 325.271 230.357 327.701C227.11 330.815 224.13 334.212 221.151 337.607L221.149 337.609C220.159 338.738 219.169 339.866 218.169 340.984C217.637 341.579 217.077 342.139 216.518 342.697C214.604 344.612 212.711 346.505 212.055 349.67C211.555 352.086 212.163 353.857 212.795 355.695ZM306.152 279.269L306.15 279.269L306.149 279.269L306.147 279.269L306.146 279.269L306.145 279.269C305.306 279.333 304.464 279.396 303.617 279.445C290.817 280.186 276.315 276.396 275.292 275.922C274.176 275.405 272.954 275.112 271.733 274.819C271.248 274.703 270.763 274.587 270.285 274.457C269.872 274.344 269.456 274.241 269.04 274.138C268.389 273.976 267.738 273.815 267.097 273.617C265.375 273.086 263.661 272.521 261.961 271.925C261.351 271.711 260.76 271.41 260.208 271.071C259.802 270.822 259.387 270.583 258.972 270.343L258.971 270.343L258.971 270.343C257.815 269.677 256.657 269.01 255.699 268.128C254.748 267.251 254.059 266.067 253.384 264.907L253.384 264.907L253.384 264.907L253.323 264.803C253.22 264.625 253.116 264.448 253.012 264.273C252.27 263.026 251.594 261.711 251.052 260.375C248.773 254.757 251.628 248.688 252.826 246.738C254.342 244.272 257.165 242.916 259.468 242.5C261.443 242.143 264.051 242.061 266.444 242.887C268.09 243.455 269.523 244.315 270.949 245.171C271.796 245.679 272.641 246.186 273.526 246.629C276.501 248.118 279.163 250.049 281.803 251.964L282.113 252.189C283.637 253.294 284.945 254.688 286.257 256.085C287.063 256.943 287.87 257.803 288.728 258.597C290.06 259.829 291.497 260.948 292.932 262.066C293.271 262.33 293.611 262.595 293.949 262.861C294.303 263.14 294.654 263.429 295.005 263.719L295.006 263.719C296.068 264.596 297.134 265.476 298.333 266.088C299.852 266.864 301.487 267.419 303.118 267.973L303.119 267.973L303.119 267.973L303.12 267.974L303.12 267.974L303.121 267.974L303.121 267.974L303.122 267.974L303.122 267.974L303.123 267.975L303.124 267.975L303.124 267.975L303.125 267.975L303.125 267.975L303.126 267.976C303.647 268.153 304.169 268.33 304.686 268.514C305.943 268.962 307.216 269.386 308.51 269.705C308.654 269.74 308.799 269.777 308.944 269.814L308.945 269.814L308.946 269.814C309.959 270.071 311.005 270.336 312.006 270.254C314.92 270.016 315.054 269.914 317.481 268.068L317.481 268.068C317.611 267.97 317.747 267.866 317.891 267.757C318.184 267.535 318.672 267.373 319.015 267.444C321.023 267.864 323.084 268.37 324.386 270.043C324.669 270.406 323.993 271.879 323.399 272.491C323.288 272.605 323.177 272.72 323.067 272.834C321.296 274.667 319.563 276.46 316.991 277.516C314.759 278.433 312.646 278.957 310.302 279.022C308.915 279.061 307.537 279.165 306.153 279.269L306.152 279.269ZM242.732 224.07C242.72 223.86 242.707 223.651 242.683 223.45C242.575 222.548 242.48 221.644 242.384 220.741L242.384 220.738C242.345 220.366 242.305 219.995 242.265 219.623C242.493 217.74 242.693 216.266 242.956 214.804C243.003 214.542 243.043 214.275 243.083 214.007C243.211 213.145 243.341 212.273 243.723 211.54C244.158 210.703 244.703 209.924 245.249 209.144C245.772 208.396 246.295 207.649 246.722 206.849C248.175 204.13 250.696 202.784 253.182 201.458C253.849 201.102 254.514 200.747 255.155 200.367C256.529 199.553 258.241 199.285 259.932 199.021C260.475 198.936 261.016 198.851 261.543 198.749C262.931 198.48 264.367 198.315 265.778 198.342C268.035 198.385 270.212 198.905 272.422 199.459C275.431 200.213 277.847 201.761 280.058 203.73C280.511 204.133 280.774 204.748 281.037 205.365L281.037 205.366C281.166 205.666 281.294 205.968 281.445 206.245C281.757 206.816 282.073 207.385 282.389 207.954L282.389 207.955L282.392 207.959L282.394 207.963L282.394 207.963L282.394 207.963L282.394 207.964L282.394 207.964L282.395 207.964L282.395 207.965L282.395 207.965L282.395 207.965L282.395 207.966L282.396 207.966L282.396 207.966L282.396 207.967L282.396 207.967L282.396 207.967L282.396 207.968L282.397 207.968L282.397 207.968L282.397 207.969L282.397 207.969L282.397 207.969C282.929 208.926 283.461 209.883 283.97 210.852C284.682 212.206 283.496 213.729 281.931 213.812C280.837 213.869 272.739 214.555 269.814 217.118C267.32 219.304 266.714 220.144 265.737 221.497C265.568 221.731 265.389 221.98 265.186 222.254C264.468 223.226 263.859 227.684 264.249 228.872C264.59 229.911 265.058 230.907 265.526 231.905L265.526 231.905L265.526 231.905L265.526 231.905L265.526 231.906L265.526 231.906L265.526 231.906L265.526 231.906L265.526 231.907L265.527 231.907L265.527 231.907L265.527 231.907L265.527 231.907L265.527 231.908L265.527 231.908L265.527 231.908L265.527 231.908L265.527 231.909L265.527 231.909L265.527 231.909L265.528 231.909L265.528 231.91C265.902 232.707 266.276 233.505 266.587 234.326C266.809 234.913 266.862 235.564 266.915 236.214C266.939 236.51 266.963 236.805 267.003 237.094C266.717 237.086 266.429 237.089 266.14 237.093C265.486 237.1 264.831 237.108 264.204 236.981C263.507 236.839 262.834 236.575 262.161 236.311L262.16 236.311C261.86 236.193 261.56 236.076 261.258 235.969C259.955 235.508 258.651 235.048 257.346 234.588L255.395 233.9C254.974 233.751 254.548 233.613 254.122 233.476C253.183 233.172 252.243 232.869 251.36 232.449C248.027 230.866 244.91 228.952 243.039 225.605C242.798 225.173 242.765 224.619 242.732 224.07ZM277.113 332.643C277.319 333.495 277.525 334.348 277.714 335.203C277.745 335.344 277.651 335.511 277.558 335.677C277.514 335.754 277.471 335.832 277.44 335.907C277.716 337.471 277.977 338.625 278.27 339.772C278.479 340.584 278.694 341.396 278.909 342.208L278.909 342.21C279.32 343.763 279.732 345.315 280.097 346.877C280.299 347.746 280.396 348.685 280.311 349.567C280.082 351.942 282.823 357.094 285.01 357.45C286.498 357.693 288.027 357.671 289.559 357.648C290.508 357.634 291.458 357.62 292.401 357.669C293.141 357.707 293.945 358.054 294.538 358.501C294.723 358.642 294.486 359.73 294.141 360.107C293.332 360.988 292.403 361.795 291.41 362.461C287.894 364.829 283.88 364.791 279.881 364.655C276.345 364.535 273.121 363.724 270.975 360.504C269.967 358.992 268.902 357.519 267.836 356.045C267.178 355.134 266.52 354.223 265.875 353.304C265.335 352.532 264.81 351.75 264.284 350.969C263.641 350.013 262.998 349.057 262.328 348.118C261.823 347.412 261.286 346.723 260.75 346.034C259.595 344.55 258.441 343.067 257.607 341.423C257.173 340.566 258.047 338.654 258.849 337.641C259.703 336.561 260.67 335.568 261.637 334.577C262.741 333.444 263.844 332.312 264.777 331.052C265.225 330.445 265.381 329.612 265.536 328.784C265.699 327.913 265.861 327.049 266.361 326.459C267.633 324.962 267.651 323.294 267.668 321.655C267.675 320.947 267.682 320.245 267.79 319.565C267.948 318.576 268.094 317.583 268.24 316.588L268.241 316.586C268.547 314.504 268.854 312.417 269.265 310.361C269.417 309.607 270.223 308.97 270.999 308.356C271.258 308.151 271.514 307.949 271.741 307.746C271.843 307.655 272.635 308.019 272.739 308.305C273.087 309.265 273.353 310.275 273.495 311.288C273.664 312.496 273.806 313.709 273.948 314.922L273.948 314.922L273.948 314.923L273.948 314.923L273.948 314.924L273.948 314.924L273.948 314.925L273.948 314.925L273.949 314.926L273.949 314.926L273.949 314.927L273.949 314.927L273.949 314.927L273.949 314.928L273.949 314.928L273.949 314.929L273.949 314.929L273.949 314.93L273.95 314.931C274.136 316.519 274.322 318.107 274.569 319.685C274.697 320.502 274.924 321.303 275.15 322.105L275.15 322.105L275.151 322.106L275.151 322.106L275.151 322.107L275.151 322.107L275.151 322.108L275.151 322.108L275.151 322.109L275.151 322.109L275.151 322.109L275.151 322.11L275.151 322.11L275.152 322.111L275.152 322.111L275.152 322.112L275.152 322.112L275.152 322.113L275.152 322.113L275.152 322.114L275.152 322.114L275.153 322.115L275.153 322.116L275.153 322.116L275.153 322.117L275.153 322.117L275.153 322.118L275.153 322.118L275.153 322.119L275.153 322.119L275.153 322.12L275.153 322.12L275.154 322.12L275.154 322.121L275.154 322.121L275.154 322.122L275.154 322.122L275.154 322.123L275.154 322.123L275.154 322.124C275.353 322.827 275.552 323.531 275.684 324.245C275.817 324.962 275.88 325.692 275.944 326.421L275.944 326.422V326.422C276.01 327.183 276.077 327.944 276.221 328.69C276.477 330.01 276.793 331.319 277.109 332.628L277.109 332.629L277.11 332.63L277.11 332.63L277.11 332.631L277.11 332.632L277.11 332.633L277.11 332.633L277.111 332.634L277.111 332.635L277.111 332.635L277.111 332.636L277.111 332.637L277.112 332.638L277.112 332.638L277.112 332.639L277.112 332.64L277.112 332.641L277.112 332.641L277.113 332.642L277.113 332.643ZM274.786 237.05C274.01 237.279 272.737 236.651 272.016 236.033C271.375 235.484 270.896 234.747 270.417 234.01C270.21 233.692 270.004 233.375 269.784 233.072C269.589 232.779 269.395 232.5 269.207 232.232C268.6 231.36 268.063 230.589 267.762 229.735C267.579 229.216 267.578 228.637 267.578 228.054C267.578 227.588 267.578 227.119 267.484 226.676C267.049 224.621 268.16 223.337 269.305 222.012L269.306 222.011C269.473 221.817 269.642 221.622 269.806 221.424C271.133 219.825 272.765 218.638 274.566 217.736C275.599 217.219 276.851 217.003 278.021 216.927C278.775 216.878 279.54 216.912 280.303 216.945C281.405 216.994 282.503 217.042 283.557 216.84C284.734 216.615 285.104 217.173 285.494 217.801C285.856 218.386 286.081 219.145 286.101 219.835C286.153 221.659 286.092 223.488 285.995 225.311C285.988 225.455 285.831 225.586 285.67 225.719C285.513 225.85 285.353 225.984 285.328 226.134C284.761 229.624 282.623 232.251 280.207 234.493C278.8 235.798 276.695 236.486 274.786 237.05ZM299.689 263.166C299.65 263.208 299.611 263.249 299.579 263.281C299.276 263.018 298.981 262.762 298.693 262.512C297.508 261.482 296.437 260.551 295.316 259.686C295.033 259.467 294.688 259.324 294.344 259.182C293.969 259.027 293.596 258.872 293.305 258.621C292.319 257.769 291.366 256.881 290.413 255.993C289.605 255.24 288.798 254.488 287.971 253.758C286.278 252.264 284.541 250.82 282.787 249.398C282.419 249.1 282.054 248.796 281.689 248.492C280.446 247.457 279.199 246.419 277.827 245.595C276.527 244.815 275.142 244.177 273.757 243.539L273.756 243.538C272.918 243.152 272.08 242.766 271.26 242.349C270.352 241.886 269.499 241.314 268.648 240.744C268.521 240.658 268.393 240.573 268.265 240.488C268.244 240.474 268.524 239.749 268.709 239.727C269.376 239.646 270.053 239.526 270.731 239.406L270.732 239.406C272.48 239.097 274.236 238.787 275.849 239.131C278.131 239.617 280.438 240.439 282.6 241.927C286.165 244.381 289.315 247.189 292.308 250.233C295.598 253.581 298.843 256.973 302.088 260.365L303.273 261.603C304.71 263.105 306.105 264.646 307.499 266.187C307.626 266.327 307.714 266.687 307.629 266.799C307.346 267.171 306.857 267.815 306.661 267.747C306.015 267.519 305.429 267.093 304.86 266.679L304.86 266.679L304.757 266.604C303.899 265.982 303.048 265.351 302.196 264.721C301.419 264.146 300.643 263.571 299.862 263.002C299.85 262.994 299.77 263.079 299.689 263.166ZM672.623 364.063C672.253 364.077 671.862 364.133 671.471 364.188C670.61 364.31 669.748 364.433 669.105 364.117C669.066 364.097 668.96 364.044 668.789 363.958L668.747 363.937L668.739 363.933C662.285 360.677 575.292 316.789 486.548 289.785C409.621 266.377 328.824 259.75 325.368 259.466L325.269 259.458C324.9 259.427 407.376 257.383 487.762 281.489C580.176 309.202 672.237 363.598 672.623 364.063ZM384.311 210.583L384.311 210.581C384.409 209.675 384.508 208.758 384.62 207.829C384.559 207.583 384.502 207.343 384.445 207.107C384.184 206.016 383.948 205.031 383.579 204.098C383.544 204.011 383.51 203.924 383.477 203.837L383.428 203.71C382.862 202.248 382.296 200.783 380.397 200.327C379.979 200.227 379.622 199.905 379.259 199.579C378.961 199.31 378.658 199.037 378.315 198.883C377.311 198.43 376.218 198.116 375.132 197.925C374.583 197.828 374.02 197.814 373.456 197.8C372.901 197.787 372.346 197.773 371.805 197.68C370.834 197.514 369.868 197.306 368.903 197.097C367.418 196.777 365.935 196.456 364.433 196.291C363.855 196.228 363.278 196.173 362.701 196.119L362.699 196.118C361.087 195.966 359.479 195.814 357.872 195.473C356.384 195.158 354.836 195.114 353.292 195.07H353.292H353.291H353.291H353.29C352.797 195.056 352.304 195.042 351.814 195.019C351.589 195.008 351.357 195.083 351.126 195.157C350.871 195.239 350.617 195.32 350.378 195.284C348.674 195.027 346.978 194.717 345.282 194.408C344.849 194.329 344.416 194.25 343.984 194.172C343.229 194.035 342.479 194.047 341.72 194.059C340.872 194.072 340.014 194.085 339.126 193.893C337.601 193.562 336.013 193.55 334.412 193.538C333.335 193.53 332.253 193.522 331.18 193.417C328.966 193.199 326.725 193.251 324.484 193.303C323.567 193.324 322.651 193.345 321.737 193.348C320.385 193.353 318.705 194.909 318.609 196.233C318.581 196.608 318.602 197.018 318.623 197.428V197.429V197.429V197.429V197.43V197.43V197.431V197.431V197.432V197.432V197.432V197.433V197.433V197.434V197.434V197.434V197.435V197.435C318.667 198.301 318.71 199.163 318.306 199.675C317.283 200.969 317.422 202.361 317.562 203.759C317.677 204.905 317.792 206.056 317.266 207.16C316.745 208.254 316.811 209.568 316.877 210.881C316.909 211.522 316.941 212.163 316.905 212.778C316.844 213.813 316.751 214.847 316.658 215.883C316.476 217.91 316.294 219.94 316.352 221.977C316.36 222.253 316.433 222.532 316.505 222.809L316.505 222.809C316.596 223.158 316.686 223.504 316.645 223.838C316.469 225.264 316.254 226.686 316.039 228.107L316.038 228.108C315.859 229.295 315.679 230.482 315.522 231.672C315.408 232.529 315.414 233.385 315.419 234.246V234.247C315.426 235.35 315.433 236.461 315.19 237.589C314.909 238.898 314.904 240.252 314.898 241.619C314.893 242.65 314.889 243.688 314.766 244.719C314.608 246.045 314.634 247.383 314.661 248.726V248.727C314.696 250.538 314.731 252.359 314.316 254.17C314.06 255.291 313.992 256.453 313.923 257.617C313.879 258.363 313.836 259.11 313.742 259.847C313.707 260.12 313.534 260.425 313.373 260.708L313.372 260.708C313.18 261.046 313.006 261.352 313.107 261.533C313.429 262.107 314.188 262.548 314.856 262.795C316.675 263.468 319.125 262.583 319.228 261.291C319.274 260.714 319.341 260.133 319.407 259.552L319.407 259.55L319.408 259.548C319.582 258.026 319.756 256.502 319.57 255.025C319.396 253.649 319.709 252.373 320.02 251.104L320.02 251.104C320.284 250.029 320.547 248.959 320.51 247.838C320.499 247.495 320.916 246.839 321.156 246.829C324.261 246.697 327.37 246.62 330.479 246.602C331.587 246.596 332.695 246.628 333.803 246.659C335.02 246.694 336.238 246.729 337.455 246.714C338.732 246.697 340.009 246.643 341.287 246.589C343.348 246.501 345.409 246.414 347.466 246.486C348.757 246.531 350.039 246.792 351.322 247.053C352.217 247.236 353.112 247.418 354.013 247.528C354.571 247.596 355.132 247.608 355.693 247.621C356.605 247.642 357.522 247.663 358.439 247.92C358.978 248.072 359.563 248.053 360.15 248.034C360.694 248.017 361.24 248 361.752 248.118C362.59 248.312 363.404 248.607 364.219 248.903L364.22 248.903C364.919 249.156 365.618 249.41 366.334 249.6C367.151 249.816 367.996 249.929 368.841 250.043C369.267 250.1 369.692 250.157 370.115 250.227C370.49 250.289 370.883 250.4 371.275 250.511C372.124 250.75 372.97 250.988 373.628 250.734C374.925 250.234 376.196 249.11 376.952 247.92C377.72 246.711 378.033 245.169 378.329 243.712L378.373 243.495C378.464 243.051 378.415 242.554 378.368 242.067C378.305 241.43 378.244 240.808 378.499 240.34C379.27 238.922 379.473 237.412 379.675 235.905C379.774 235.164 379.874 234.425 380.04 233.698C380.12 233.351 380.078 232.943 380.038 232.548C379.985 232.025 379.934 231.524 380.168 231.213C381.215 229.823 381.366 228.237 381.516 226.65L381.516 226.649C381.611 225.649 381.706 224.649 382.025 223.696C382.465 222.382 382.717 220.966 382.97 219.551L382.97 219.55C383.079 218.935 383.189 218.321 383.314 217.716C383.792 215.395 384.047 213.029 384.311 210.584L384.311 210.583ZM376.717 235.27C376.436 236.712 376.156 238.147 375.516 239.486C375.483 239.789 375.462 240.068 375.442 240.326L375.442 240.328V240.328C375.39 241.021 375.349 241.56 375.12 242.002C374.764 242.691 374.718 243.489 374.672 244.285C374.596 245.585 374.52 246.879 373.099 247.681C373.038 247.716 372.975 247.752 372.911 247.789C372.458 248.051 371.936 248.354 371.534 248.265C371.125 248.174 370.741 247.96 370.359 247.745C369.957 247.521 369.557 247.296 369.129 247.216C368.373 247.075 367.601 247.015 366.83 246.955C365.945 246.887 365.061 246.818 364.204 246.626C363.473 246.463 362.771 246.169 362.069 245.876C361.355 245.577 360.641 245.278 359.897 245.117C358.949 244.912 357.973 244.84 356.996 244.769C356.236 244.713 355.475 244.658 354.726 244.539C348.31 243.521 341.869 243.674 335.427 243.827C331.567 243.919 327.707 244.011 323.852 243.85C322.517 243.795 321.395 243.722 321.298 242.016C321.263 241.404 321.153 240.762 321.043 240.123C320.818 238.805 320.593 237.495 321.027 236.455C321.943 234.262 321.834 232.096 321.726 229.939C321.681 229.034 321.636 228.13 321.666 227.227C321.956 218.719 322.032 210.203 322.099 201.689C322.1 201.565 322.1 201.441 322.1 201.318V201.317C322.103 199.924 322.106 198.633 323.132 197.472C323.723 196.805 324.244 196.556 325.157 196.622C326.23 196.699 327.307 196.714 328.385 196.729C329.606 196.746 330.827 196.763 332.04 196.871C333.256 196.979 334.466 197.169 335.675 197.358C336.948 197.558 338.22 197.758 339.501 197.862C340.323 197.929 341.175 197.869 342.022 197.809H342.022H342.022H342.023H342.023H342.023H342.023H342.024H342.024H342.024H342.025H342.025H342.025H342.025H342.026H342.026H342.026H342.026H342.027C343.343 197.716 344.647 197.625 345.805 198.01C348.148 198.79 350.513 198.846 352.872 198.903C354.096 198.932 355.317 198.962 356.534 199.092C357.479 199.192 358.473 199.117 359.458 199.043C360.94 198.93 362.401 198.82 363.644 199.312C365.689 200.124 367.731 200.139 369.745 200.154C370.543 200.16 371.337 200.166 372.124 200.221C375.444 200.455 378.327 201.402 380.167 203.833C381.236 205.245 382.266 207.582 380.92 209.777C380.803 209.969 380.833 210.248 380.865 210.532C380.882 210.692 380.9 210.853 380.892 211.002C380.852 211.707 380.86 212.43 380.868 213.154C380.886 214.815 380.904 216.477 380.346 217.915C379.81 219.295 379.554 220.712 379.298 222.125L379.298 222.126C379.084 223.311 378.87 224.493 378.492 225.648C378.228 226.454 378.233 227.362 378.239 228.263C378.245 229.282 378.252 230.292 377.868 231.137C377.264 232.469 376.99 233.873 376.717 235.27ZM317.319 244.195C317.264 244.14 317.208 244.084 317.167 244.038C317.933 244.115 318.799 244.272 318.982 244.712C319.182 245.192 319.152 245.767 319.123 246.343C319.11 246.587 319.098 246.831 319.103 247.068C319.045 247.069 318.98 247.077 318.914 247.086C318.771 247.104 318.627 247.122 318.564 247.059C318.475 246.971 318.412 246.837 318.351 246.707L318.351 246.707C318.273 246.541 318.198 246.382 318.076 246.339C316.648 245.828 316.61 245.735 317.542 244.457C317.558 244.436 317.438 244.315 317.319 244.195L317.319 244.195ZM474.59 400.525L474.591 400.526C475.087 400.779 475.577 401.03 476.07 401.274C476.44 401.458 476.828 401.613 477.214 401.768L477.215 401.769C477.853 402.024 478.488 402.279 479.037 402.66C479.717 403.129 480.287 403.761 480.854 404.39L480.939 404.485L481.003 404.555L481.08 404.64C481.123 404.688 481.167 404.735 481.211 404.783C481.248 404.823 481.285 404.863 481.322 404.903L481.392 404.977C481.474 405.068 481.417 405.482 481.35 405.503C481.189 405.552 481.019 405.617 480.847 405.683C480.374 405.864 479.886 406.05 479.525 405.917C478.93 405.694 478.318 405.514 477.705 405.334C475.885 404.801 474.066 404.267 472.71 402.598C471.609 401.241 470.086 400.115 468.543 399.271C467.847 398.894 466.577 399.449 466.291 400.603C465.569 403.513 457.658 415.054 445.815 415.054C433.973 415.054 415.341 413.834 410.388 407.888C403.429 399.532 406.11 383.576 406.368 382.041L406.382 381.957C406.465 381.435 406.08 380.777 405.753 380.289C405.653 380.14 404.947 380.227 404.649 380.413C403.736 380.99 402.848 381.604 401.96 382.218L401.96 382.219L401.959 382.219L401.959 382.219L401.959 382.219L401.95 382.225L401.908 382.254C401.774 382.347 401.64 382.439 401.506 382.532C401.296 382.677 401.085 382.822 400.873 382.966C400.662 383.11 400.451 383.255 400.241 383.401L400.118 383.487L399.947 383.606L399.661 383.806L399.649 383.815C398.544 384.589 397.438 385.364 396.262 386.008C395.902 386.206 395.307 386.012 394.752 385.832L394.752 385.832C394.587 385.778 394.425 385.726 394.274 385.685C393.959 385.597 393.662 385.444 393.365 385.291C393.23 385.222 393.096 385.152 392.959 385.089C393.202 384.873 393.438 384.647 393.674 384.422L393.674 384.422L393.675 384.421L393.675 384.421L393.675 384.421L393.676 384.42L393.676 384.42C394.199 383.92 394.722 383.42 395.315 383.024C396.119 382.49 396.962 382.013 397.805 381.536L397.806 381.535C398.42 381.188 399.034 380.84 399.633 380.471C401.185 379.511 402.714 378.509 404.225 377.487C404.408 377.363 404.594 377.241 404.781 377.119L404.782 377.118L404.783 377.118L404.783 377.117C405.556 376.61 406.338 376.097 406.941 375.431C409.503 372.6 412.383 370.2 415.371 367.812C416.76 366.705 418.282 365.946 419.796 365.19C420.858 364.661 421.917 364.133 422.923 363.488C423.63 363.037 424.524 362.887 425.422 362.736L425.422 362.736C425.916 362.653 426.412 362.57 426.879 362.437C427.781 362.178 428.675 361.892 429.569 361.606L429.569 361.606C430.233 361.393 430.897 361.181 431.563 360.98C431.753 360.924 431.964 360.931 432.171 360.938C432.24 360.94 432.308 360.943 432.375 360.943C433.199 360.943 434.025 360.921 434.852 360.898C436.794 360.846 438.734 360.795 440.639 361.03C441.832 361.178 442.973 361.736 444.114 362.295L444.116 362.296C444.628 362.547 445.14 362.798 445.658 363.012C445.631 363.057 445.606 363.114 445.582 363.17C445.534 363.281 445.486 363.391 445.414 363.413C442.666 364.175 439.985 364.626 437.171 363.331C436.302 362.931 435.14 363.076 434.053 363.213C433.836 363.24 433.622 363.267 433.413 363.289C432.4 363.397 431.4 363.646 430.405 363.894C430.181 363.949 429.958 364.005 429.734 364.059C429.603 364.09 429.471 364.121 429.338 364.15C429.262 364.167 429.185 364.184 429.109 364.201C428.339 364.373 427.563 364.545 426.867 364.874C424.351 366.058 421.859 367.311 419.41 368.636C418.598 369.074 417.822 369.575 417.046 370.075L417.046 370.076L417.046 370.076L417.045 370.076L417.045 370.076L417.045 370.076L417.044 370.077L417.044 370.077L417.044 370.077L417.044 370.077L417.043 370.077L417.043 370.077L417.043 370.078L417.042 370.078L417.042 370.078C416.339 370.532 415.636 370.985 414.907 371.392C414.505 371.616 414.071 371.791 413.638 371.966L413.637 371.966C412.514 372.419 411.394 372.87 410.848 374.181C410.805 374.281 410.676 374.348 410.549 374.414C410.521 374.428 410.493 374.442 410.467 374.457C410.439 374.472 410.413 374.488 410.388 374.504C410.675 374.511 410.967 374.539 411.259 374.567C411.914 374.63 412.568 374.693 413.161 374.524C414.161 374.244 415.112 373.788 416.063 373.332C416.177 373.278 416.292 373.223 416.406 373.169L416.511 373.119C416.686 373.036 416.862 372.953 417.038 372.873C417.51 372.659 417.976 372.428 418.441 372.197C419.345 371.749 420.248 371.3 421.193 370.978C421.754 370.787 422.362 370.75 422.974 370.713H422.974C423.41 370.686 423.848 370.659 424.272 370.577C425.061 370.425 425.841 370.216 426.621 370.006L426.621 370.006L426.622 370.006L426.622 370.005L426.623 370.005L426.623 370.005C427.017 369.899 427.411 369.794 427.806 369.695C427.996 369.65 428.203 369.637 428.402 369.637C429.246 369.636 430.101 369.679 430.956 369.721C433.002 369.823 435.047 369.925 436.935 369.426C437.698 369.226 438.382 369.291 439.053 369.355C439.601 369.407 440.141 369.459 440.709 369.364C441.799 369.183 443.035 369.689 444.214 370.172L444.421 370.257C444.501 370.289 444.579 370.321 444.658 370.353C444.732 370.382 444.807 370.412 444.88 370.441C444.93 370.46 444.98 370.479 445.029 370.498C446.32 370.986 447.678 371.512 448.741 372.352C449.989 373.344 451.131 374.467 452.272 375.589L452.273 375.59C452.755 376.064 453.237 376.539 453.728 377.003C453.636 377.099 453.532 377.226 453.427 377.353C453.203 377.626 452.978 377.899 452.879 377.86C452.404 377.67 422.94 373.992 411.431 380.289C407.256 382.573 411.098 399.163 411.419 400.551L411.431 400.603C413.161 408.11 440.133 412.437 450.395 410.721C462.749 408.656 463.49 395.742 463.73 391.555C463.772 390.82 463.799 390.354 463.87 390.262C464.533 389.414 465.588 388.958 466.527 389.745C466.974 390.117 467.272 390.841 467.347 391.437C467.416 392.002 467.593 392.539 467.764 393.061L467.765 393.062C467.901 393.477 468.035 393.883 468.108 394.284C468.337 395.552 469.154 396.348 469.978 397.151C470.555 397.713 471.137 398.279 471.522 399.014C472.616 399.516 473.615 400.027 474.59 400.525ZM171.763 321.701L171.763 321.701C171.376 321.614 170.99 321.527 170.732 321.671C169.832 322.173 131.57 339.293 104.855 324.647C104.528 324.467 104.057 324.224 103.494 323.933C100.15 322.204 93.5236 318.778 93.9206 316.838C95.0019 311.552 110.121 304.29 112.087 303.345C112.215 303.284 112.287 303.25 112.296 303.244C112.211 303.11 112.134 302.95 112.056 302.79C111.885 302.437 111.714 302.084 111.46 302.008C110.73 301.792 109.877 301.764 109.123 301.907C108.242 302.075 98.6539 304.212 96.9742 305.277C95.2084 306.397 90.3758 312.286 90.4644 314.185C90.5027 314.997 90.2321 315.821 89.9601 316.65C89.8175 317.084 89.6746 317.519 89.5755 317.955C89.5174 318.21 89.506 318.488 89.4948 318.763C89.477 319.2 89.4594 319.63 89.2564 319.95C89.0349 320.299 88.7738 320.859 88.4573 321.538C87.8355 322.873 87.0003 324.665 85.8333 326.214C84.9581 327.375 83.7684 328.351 82.8641 329.094L82.8637 329.094L82.8627 329.095C82.3229 329.538 81.8849 329.897 81.6765 330.163C81.551 330.322 81.3856 330.482 81.2164 330.646C80.7494 331.098 80.2541 331.577 80.4938 332.149C80.8179 332.923 81.9595 332.544 82.5732 332.34L82.5865 332.335C83.4803 332.042 84.3303 331.47 85.0603 330.854C86.0828 329.989 87.0466 329.033 87.909 328.011C88.7925 326.96 89.6554 325.851 90.2868 324.647C90.9841 323.31 92.5261 322.756 93.9206 323.715C133.15 350.691 170.166 324.978 171.895 323.442C172.132 323.233 172.174 322.804 172.216 322.373C172.235 322.175 172.255 321.977 172.293 321.799C172.125 321.782 171.944 321.742 171.763 321.701ZM348.928 170.068C348.155 170.843 347.385 171.604 346.62 172.358L346.62 172.359C344.697 174.257 342.812 176.117 341.032 178.073C340.406 178.76 340.015 179.664 339.625 180.566C339.457 180.955 339.288 181.344 339.101 181.716C338.093 183.716 336.605 184.466 333.988 185.601C332.475 186.258 330.891 186.885 329.492 186.611C328.51 186.418 327.523 186.433 326.551 186.448C325.473 186.464 324.413 186.48 323.395 186.213C322.156 185.888 320.799 184.823 320.174 183.709C319.634 182.744 320.239 181.491 321.317 180.454C322.507 179.31 323.532 177.997 324.558 176.682L324.558 176.682C325.151 175.922 325.744 175.162 326.369 174.434C327.038 173.656 327.7 172.872 328.363 172.088L328.368 172.083C330.563 169.487 332.759 166.889 335.161 164.499C337.146 162.523 339.616 161.25 342.527 160.432C345.175 159.687 347.199 159.87 349.567 160.884C350.45 161.261 351.469 161.315 352.49 161.369L352.491 161.369C352.989 161.395 353.488 161.421 353.972 161.485C355.516 161.689 356.43 163.144 355.436 163.851C354.558 164.477 352.918 165.093 352.184 164.686C348.152 162.451 344.133 162.979 340.185 164.48C339.133 164.88 338.261 165.795 337.406 166.694C337.132 166.981 336.86 167.266 336.585 167.533C334.472 169.575 332.366 171.63 330.361 173.777C329.586 174.608 328.921 175.545 328.258 176.48C328.012 176.827 327.766 177.173 327.515 177.514C327.348 177.74 327.181 177.966 327.013 178.192C326.168 179.333 325.322 180.475 324.535 181.656C323.95 182.534 324.026 182.7 324.942 182.992C327.226 183.72 329.456 183.577 331.727 182.751C334.5 181.742 336.096 179.627 337.752 177.431L337.756 177.425C337.957 177.159 338.16 176.891 338.365 176.624C339.716 174.864 341.355 173.326 342.994 171.788L342.994 171.788L342.994 171.788C343.709 171.117 344.424 170.447 345.115 169.758C345.236 169.637 345.36 169.52 345.485 169.402C345.707 169.193 345.928 168.984 346.131 168.757C347.136 167.628 348.15 166.542 349.859 166.633C349.938 166.637 350.015 166.54 350.098 166.435C350.162 166.355 350.229 166.271 350.302 166.224C350.41 166.155 350.541 166.119 350.671 166.083L350.671 166.083C350.728 166.067 350.785 166.051 350.841 166.033C350.832 166.09 350.828 166.149 350.824 166.209L350.824 166.21C350.815 166.34 350.806 166.469 350.753 166.577C350.189 167.711 349.607 168.836 348.928 170.068ZM364.135 153.993C366.983 151.301 369.85 148.59 371.791 144.928C371.323 144.772 370.851 144.736 370.383 144.701C370.162 144.684 369.942 144.668 369.724 144.638C369.36 144.59 368.993 144.498 368.628 144.406C367.988 144.245 367.353 144.086 366.745 144.164C365.618 144.308 364.454 144.77 363.476 145.37C362.042 146.252 360.516 146.952 358.987 147.655C356.731 148.69 354.469 149.729 352.485 151.355C351.94 151.801 351.672 152.3 351.417 152.776C351.211 153.159 351.013 153.527 350.686 153.841C350.849 153.873 351.012 153.902 351.175 153.932L351.176 153.932C351.538 153.998 351.9 154.064 352.254 154.158C353.098 154.383 353.94 154.616 354.781 154.85C355.498 155.049 356.214 155.248 356.931 155.441C357.124 155.493 357.317 155.548 357.51 155.604C358.129 155.781 358.748 155.959 359.379 156.027C359.549 156.045 359.734 156.071 359.924 156.097C360.752 156.212 361.695 156.342 362.079 155.964C362.754 155.3 363.444 154.647 364.135 153.993ZM364.256 148.002C364.286 148.014 364.315 148.024 364.342 148.032C364.807 147.687 365.483 147.597 365.684 147.864C365.951 148.219 366.084 149.143 365.866 149.32C364.454 150.468 362.983 151.565 361.42 152.491C360.82 152.845 359.923 152.791 359.173 152.741C358.94 152.725 358.491 152.004 358.581 151.789C358.616 151.705 358.653 151.615 358.691 151.522L358.692 151.52L358.694 151.514C359.001 150.764 359.397 149.793 359.859 149.734C361.289 149.549 362.354 148.832 363.449 148.095C363.555 148.023 363.662 147.951 363.77 147.879C363.844 147.83 363.993 147.893 364.143 147.956L364.196 147.978C364.216 147.986 364.236 147.994 364.256 148.002ZM430.45 285.317C426.016 284.791 421.633 284.79 417.263 284.79H417.259C415.913 284.79 414.568 284.79 413.223 284.774C412.395 284.765 411.452 284.596 410.786 284.161C410.388 283.905 410.235 282.939 410.347 282.368C410.421 282.004 411.187 281.522 411.634 281.53C412.495 281.547 413.948 281.479 415.699 281.396C419.861 281.199 425.703 280.923 429.248 281.53C437.386 282.925 441.603 288.121 441.359 288.099C440.982 288.065 440.599 288.049 440.216 288.032C439.241 287.989 438.262 287.947 437.386 287.629C436.712 287.384 436.056 287.089 435.397 286.794C433.85 286.099 432.287 285.398 430.45 285.317ZM384.062 138.687C385.638 138.06 385.701 137.128 384.206 136.238C383.779 136.355 383.401 136.489 383.045 136.615C382.633 136.76 382.251 136.895 381.858 136.982C381.007 137.172 380.151 137.342 379.295 137.511L379.294 137.511C377.995 137.769 376.696 138.027 375.414 138.353C374.957 138.469 374.294 139.227 374.35 139.594C374.448 140.237 374.879 140.844 375.284 141.414C375.327 141.474 375.37 141.534 375.412 141.594C375.487 141.7 376.033 141.539 376.325 141.416C376.694 141.259 377.057 141.085 377.419 140.911C378.004 140.629 378.59 140.348 379.201 140.143C379.881 139.915 380.576 139.731 381.271 139.546C382.216 139.296 383.16 139.046 384.062 138.687ZM388.758 133.755C388.781 132.435 388.789 132.433 390.693 132.109L390.89 132.076C391.293 132.007 391.678 131.84 392.064 131.672C392.382 131.533 392.701 131.395 393.031 131.311C393.199 131.268 393.724 131.777 393.684 131.914C393.659 131.999 393.633 132.091 393.606 132.187C393.432 132.811 393.211 133.604 392.875 133.674C392.502 133.752 392.129 133.94 391.755 134.13C390.792 134.618 389.813 135.114 388.758 133.755ZM399.785 128.73C399.94 128.713 400.094 128.695 400.241 128.686C401.389 128.478 401.421 127.761 401.451 127.068C401.464 126.761 401.477 126.459 401.586 126.208C401.418 126.238 401.246 126.262 401.075 126.286L401.075 126.286L401.074 126.286L401.074 126.286L401.074 126.286C400.687 126.339 400.3 126.392 399.944 126.527C399.869 126.556 399.789 126.585 399.706 126.615C399.141 126.822 398.449 127.075 398.34 127.452C397.909 128.941 398.858 128.835 399.785 128.73ZM412.9 123.795L412.831 123.827C412.488 123.983 412.193 124.118 411.936 124.064C411.573 123.987 411.228 123.821 410.882 123.654C410.736 123.584 410.59 123.513 410.442 123.45C410.527 123.425 410.612 123.4 410.696 123.374C410.81 123.339 410.924 123.304 411.038 123.268L411.042 123.267L411.043 123.267L411.043 123.267L411.044 123.267C411.503 123.124 411.963 122.98 412.433 122.886C413.124 122.747 413.285 122.943 413.07 123.72C413.012 123.745 412.955 123.77 412.9 123.795ZM481.579 68.0658L481.579 68.0667C481.671 68.4364 481.764 68.8142 481.868 69.1988C481.978 69.574 482.103 69.8831 482.217 70.1672C482.312 70.4027 482.4 70.6209 482.468 70.8454C483.287 73.5564 483.622 76.3224 483.56 79.1632C483.546 79.783 483.695 80.4031 483.844 81.0258C483.958 81.4996 484.072 81.9749 484.115 82.4527C484.168 83.0438 484.155 83.6547 484.143 84.2633C484.12 85.3465 484.097 86.4221 484.45 87.3643C485.003 88.8491 484.872 90.2796 484.745 91.6711C484.721 91.9361 484.697 92.1996 484.677 92.4618C484.508 94.7171 483.639 96.6708 481.255 97.9321C480.572 98.2938 479.89 98.3927 479.217 98.4902C478.618 98.577 478.027 98.6628 477.448 98.9319C476.659 99.2992 475.803 99.4254 474.933 99.5537C473.829 99.7166 472.702 99.8828 471.663 100.55C471.052 100.943 470.238 101.014 469.421 101.084C468.633 101.152 467.842 101.22 467.227 101.578C465.832 102.387 464.855 102.309 463.722 101.472C463.203 101.089 462.693 100.693 462.182 100.297L462.182 100.296C461.712 99.931 461.241 99.5654 460.763 99.2096C460.204 98.7933 459.629 98.3943 459.033 98.0343C458.4 97.6511 457.632 97.4444 456.909 97.2499C456.228 97.0665 455.587 96.8941 455.139 96.595C453.901 95.7711 452.904 96.0838 451.931 96.3889C451.473 96.5326 451.02 96.6745 450.55 96.6956C450.171 96.7124 449.816 97.2866 449.461 97.8599C449.301 98.1201 449.14 98.38 448.977 98.5876C449.228 98.7156 449.491 98.8897 449.754 99.0637C450.335 99.4488 450.916 99.8336 451.369 99.7182C451.505 99.6835 451.638 99.6477 451.769 99.6123C452.79 99.3369 453.676 99.0976 454.729 99.7902C455.204 100.103 455.747 100.309 456.292 100.515C456.778 100.699 457.265 100.884 457.705 101.145C457.856 101.235 458.008 101.324 458.16 101.414C459.366 102.123 460.601 102.848 461.545 103.83C463.014 105.353 464.599 105.912 466.709 105.28C468.184 104.838 469.673 104.446 471.164 104.054C472.313 103.752 473.463 103.45 474.605 103.125C475.218 102.95 475.835 102.79 476.451 102.631C479.078 101.951 481.691 101.274 483.957 99.4541C487.425 96.6646 487.537 92.8839 487.115 89.1814C487.039 88.5227 486.951 87.8641 486.863 87.2044L486.862 87.201L486.862 87.1973C486.667 85.7376 486.471 84.2727 486.403 82.7891C486.35 81.6082 486.381 80.4215 486.412 79.2346V79.2344V79.2342V79.2339V79.2337V79.2334V79.2332V79.233V79.2327V79.2323C486.49 76.2921 486.568 73.3505 485.356 70.4916C485.002 69.6545 484.803 68.7526 484.603 67.8501C484.411 66.9804 484.218 66.1102 483.887 65.2969C483.287 63.8142 482.348 62.442 481.408 61.131L481.294 60.9718C480.669 60.0974 479.876 58.9886 479.054 58.8885C478.341 58.8014 477.566 59.2304 476.79 59.6597L476.79 59.66C476.453 59.8464 476.116 60.0328 475.784 60.1771C475.957 60.2914 476.131 60.405 476.304 60.5186L476.305 60.5192L476.306 60.5197C476.718 60.7894 477.13 61.0595 477.535 61.3408C477.754 61.4956 477.965 61.6814 478.139 61.8874C478.377 62.1683 478.632 62.4416 478.886 62.7151L478.886 62.7153L478.886 62.7156C479.506 63.382 480.127 64.0494 480.523 64.8297C481.02 65.8048 481.289 66.8951 481.579 68.0658ZM447.434 107.822L447.417 107.788C447.277 107.727 447.136 107.715 447.039 107.707C446.97 107.701 446.923 107.697 446.916 107.678C446.767 107.263 446.64 106.841 446.512 106.418L446.512 106.417C446.48 106.312 446.448 106.206 446.416 106.101C446.358 106.291 446.281 106.483 446.205 106.675C446.036 107.1 445.867 107.526 445.898 107.936C446.109 110.754 446.366 113.479 447.748 116.155C448.37 117.36 448.609 118.751 448.85 120.15C449.053 121.332 449.257 122.518 449.693 123.601C449.749 123.741 449.806 123.881 449.862 124.022L449.862 124.022C450.655 125.996 451.442 127.953 451.828 130.038C451.973 130.82 451.803 131.738 451.53 132.504C451.211 133.398 450.566 134.115 449.92 134.834C448.944 135.92 447.965 137.01 448.091 138.722C448.103 138.877 447.958 139.043 447.813 139.208C447.776 139.252 447.738 139.295 447.702 139.339C447.674 139.374 447.647 139.409 447.624 139.444C447.724 139.406 447.828 139.374 447.932 139.342C448.173 139.267 448.414 139.192 448.605 139.051C448.721 138.967 448.791 138.823 448.861 138.678C448.928 138.541 448.994 138.403 449.101 138.318C449.408 138.074 449.717 137.839 450.024 137.605L450.025 137.604C451.857 136.207 453.617 134.865 454.44 132.241C455.16 129.947 454.911 128.159 454.113 126.261C453.66 125.19 453.109 124.144 452.559 123.101C451.575 121.233 450.595 119.373 450.194 117.389C449.664 114.76 449.047 112.189 448.245 109.645C448.057 109.054 447.774 108.494 447.434 107.822ZM504.704 194.05L504.703 194.05L504.702 194.049C504.282 193.951 503.87 193.855 503.457 193.763C503.194 193.704 502.932 193.644 502.67 193.585L502.669 193.584C501.596 193.34 500.522 193.095 499.434 192.933C498.846 192.845 498.247 192.827 497.647 192.809C497.205 192.796 496.762 192.783 496.322 192.742C495.66 192.68 494.961 192.611 494.365 192.353C493.833 192.125 493.343 191.801 492.854 191.477C492.78 191.429 492.706 191.38 492.632 191.331C492.574 191.293 492.516 191.255 492.457 191.217C492.378 191.166 492.298 191.116 492.217 191.066C492.344 191.061 492.47 191.056 492.597 191.053C492.748 191.048 492.899 191.044 493.05 191.04C493.698 191.023 494.346 191.006 494.986 190.931C495.301 190.895 495.613 190.802 495.925 190.71C496.337 190.587 496.748 190.466 497.158 190.476L497.596 190.486C500.38 190.554 503.171 190.622 505.94 190.9C507.736 191.081 509.516 191.464 511.291 191.846C511.712 191.936 512.132 192.027 512.552 192.114C514.111 192.439 515.656 192.829 517.2 193.218L517.721 193.349C519.095 193.695 520.46 194.064 521.827 194.434L521.832 194.435L522.406 194.59C522.603 194.643 522.793 194.719 522.983 194.795C523.072 194.83 523.16 194.865 523.25 194.898C523.18 194.995 523.109 195.119 523.039 195.243L523.038 195.243C522.884 195.515 522.729 195.787 522.575 195.786C521.839 195.781 521.103 195.915 520.365 196.048C518.827 196.327 517.283 196.606 515.722 195.636C515.444 195.463 515.122 195.498 514.756 195.538C514.289 195.589 513.749 195.648 513.128 195.297C512.025 194.676 510.581 194.664 509.066 194.651C508.42 194.645 507.761 194.64 507.111 194.587C506.242 194.41 505.459 194.226 504.704 194.05ZM180.56 264.715C203.935 261.778 223.425 259.329 223.376 258.695C223.373 258.656 223.405 258.551 223.452 258.398C223.754 257.41 224.668 254.417 220.636 254.366C203.334 254.147 153.101 260.039 105.895 270.158C38.9168 283.892 0.329154 303.031 0.787236 304.334C0.995456 304.926 17.6499 300.041 38.0897 294.046L38.0902 294.046C62.6178 286.852 92.5963 278.06 106.149 275.213L107.658 274.9C120.583 272.251 153.227 268.15 180.56 264.715ZM123.531 306.148C127.78 306.148 133.913 306.61 141.76 309.271L143.73 309.945C145.23 310.463 148.018 311.227 152.058 312.225C152.996 312.457 153.569 313.406 153.337 314.344C153.105 315.282 141.138 312.756 141.138 312.756C133.048 309.998 129.819 309.244 126.038 309.41C122.357 309.572 114.58 312.429 108.673 314.599L108.673 314.599C104.502 316.131 101.264 317.32 101.061 316.976C100.568 316.144 101.151 315.089 101.675 314.579C106.976 309.41 109.913 307.952 123.531 306.148ZM412.274 276.065C412.56 275.814 412.778 275.479 412.885 275.084C413.175 274.018 404.922 272.416 399.365 274.493C398.237 274.915 397.238 275.57 396.144 276.525C395.96 276.686 395.554 277.245 395.051 277.937C394.226 279.073 393.141 280.567 392.351 281.246C391.08 282.339 388.923 283.503 387.444 284.248C386.844 284.55 384.568 285.054 382.002 285.622C377.89 286.532 373.036 287.606 373.146 288.278C373.325 289.368 375.332 289.203 376.422 289.024C378.316 288.714 379.951 288.476 381.373 288.269L381.376 288.269L381.378 288.269L381.378 288.269L381.378 288.269C385.02 287.739 387.269 287.413 388.915 286.584C390.703 285.683 392.248 284.621 393.753 283.326C393.992 283.121 394.33 282.811 394.709 282.456L395.917 281.308C395.728 282.844 396.243 284.322 397.543 285.37L398.037 285.765C413.532 298.017 430.292 299.871 447.979 291.312L448.255 291.177L448.385 291.88C448.844 294.215 449.501 296.159 450.369 297.719C451.656 300.029 453.851 302.297 456.941 304.564L459.308 301.339L458.914 301.047C456.465 299.198 454.786 297.428 453.864 295.773C452.887 294.019 452.199 291.388 451.844 287.899L451.54 284.909L448.899 286.344L448.374 286.626C431.067 295.833 415.092 294.383 400.054 282.257C399.966 282.185 399.875 280.98 400.054 280.458C400.368 279.541 401.086 277.709 402.929 277.075C404.131 276.662 412.274 276.065 412.274 276.065ZM537.407 170.819L536.575 169.314C535.949 168.193 535.138 166.755 534.737 166.094L534.606 165.885C532.973 163.355 532.675 160.15 533.094 154.96L533.268 153.042L533.428 151.372C533.899 146.231 533.78 144.271 532.839 143.259L532.696 143.112C531.759 142.208 530.664 142.22 526.711 143.098L525.746 143.316C521.179 144.363 518.159 144.617 514.668 143.787L511.649 143.037C511.243 142.937 510.839 142.839 510.467 142.748C510.132 142.666 509.823 142.591 509.563 142.527C509.147 142.426 508.856 142.355 508.784 142.337L507.967 142.128C500.768 140.242 497.738 138.216 496.605 133.309C496.334 132.138 496.445 130.927 496.87 129.417L496.967 129.088C497.242 128.178 498.583 124.563 498.583 124.564C498.885 123.708 499.139 122.926 499.365 122.14L499.654 121.119C499.898 120.246 500.15 119.319 500.412 118.328L503.145 107.631C503.636 105.745 504.054 104.18 504.224 103.652L505.001 101.372L505.327 100.447C505.54 99.8568 505.745 99.3126 505.957 98.7827C507.665 94.5037 509.478 91.8616 512.033 91.1321C514.388 90.4598 516.122 90.5516 518.019 91.3082C518.414 91.4661 519.442 91.9559 520.22 92.3273C520.639 92.527 520.986 92.6925 521.124 92.7537C523.025 93.5944 524.973 94.1288 527.613 94.394L528.116 94.4405C529.389 94.5485 530.436 94.4091 533.542 93.73L535.771 93.2365C538.139 92.7222 539.691 92.4679 541.391 92.3621C542.932 92.2661 544.367 92.3333 545.732 92.5915C547.981 93.0167 551.429 94.4168 556.164 96.8009C556.904 97.1735 557.202 98.0753 556.829 98.8153C556.457 99.5552 555.555 99.853 554.815 99.4804L553.932 99.04C549.889 97.0436 546.946 95.8742 545.175 95.5393C544.072 95.3307 542.883 95.2749 541.577 95.3563C539.969 95.4564 538.454 95.715 535.977 96.2624L534.113 96.6763C530.804 97.3997 529.611 97.5615 528.023 97.4426L527.863 97.4298C524.624 97.1549 522.228 96.5221 519.911 95.4973L517.321 94.2769C517.142 94.1949 516.998 94.1307 516.907 94.0947C515.625 93.5831 514.571 93.5273 512.857 94.0168C511.532 94.395 510.113 96.4628 508.743 99.895C508.495 100.517 508.253 101.166 507.993 101.902L507.086 104.554C506.68 105.731 503.734 117.457 503.636 117.861L503.153 119.693C502.839 120.868 502.54 121.954 502.248 122.968C502.054 123.646 501.84 124.318 501.599 125.026L501.412 125.563C501.169 126.251 500.953 126.861 500.761 127.403C499.409 131.219 499.245 131.683 499.35 132.075C499.364 132.129 499.384 132.181 499.406 132.242C499.439 132.33 499.478 132.434 499.515 132.581L499.528 132.634C500.352 136.201 502.635 137.672 509.133 139.331L515.029 140.786C517.995 141.552 520.573 141.392 524.604 140.498L527.159 139.919C528.861 139.542 529.293 139.494 530.272 139.455C532.236 139.376 533.81 139.896 535.037 141.217C536.832 143.149 536.999 145.35 536.421 151.596L536.123 154.743L536.052 155.624C535.746 159.773 535.988 162.345 537.017 164.081L537.339 164.602C537.647 165.113 538.112 165.926 538.569 166.737L540.03 169.361L540.224 169.698C542.174 173.057 543.784 174.94 545.494 175.59L545.678 175.655C547.865 176.372 550.57 174.949 554.058 170.417L554.511 169.829C555.04 169.175 555.578 168.764 558.06 167.227L561.892 164.872L562.353 164.581C564.747 163.064 566.155 161.935 566.468 161.296C570.133 153.815 572.469 142.138 571.764 128.864C571.676 127.2 570.79 124.65 569.091 121.291L568.888 120.894L568.795 120.841C564.784 118.561 561.865 116.394 560.028 114.306L559.813 114.055C557.931 111.816 556.038 108.161 554.088 103.06C553.793 102.286 554.18 101.419 554.954 101.123C555.728 100.827 556.595 101.215 556.891 101.989C558.732 106.805 560.487 110.194 562.11 112.125C563.604 113.904 566.187 115.869 569.846 117.985L570.745 118.496L571.135 118.714L571.342 119.11C573.491 123.212 574.636 126.379 574.76 128.704C575.491 142.486 573.054 154.672 569.162 162.616C568.502 163.963 566.881 165.262 563.96 167.115L563.232 167.571L560.131 169.476C557.555 171.067 557.038 171.451 556.687 171.917C552.4 177.6 548.47 179.728 544.743 178.506C541.95 177.59 539.882 175.16 537.407 170.819ZM582.768 80.8445C582.015 80.4974 581.124 80.8257 580.777 81.5779C580.027 83.2027 578.856 84.2228 577.179 84.7177C575.977 85.0727 574.631 85.2776 572.983 85.3851C572.408 85.4227 571.914 85.445 571.177 85.4661L568.643 85.5308C564.585 85.6631 562.816 86.0063 561.043 87.2832C558.693 88.9766 557.706 94.3893 558.531 97.5068L558.575 97.6774C558.604 97.7948 558.635 97.9204 558.666 98.0579L558.767 98.5096C558.773 98.5393 558.796 98.6475 558.828 98.7975C558.898 99.1296 559.011 99.6669 559.086 100.011L559.227 100.642C559.353 101.186 559.479 101.671 559.618 102.145C560.174 104.036 560.91 105.568 561.992 106.83C562.142 107.004 562.56 107.76 563.02 108.625L564.595 111.635C565.869 113.879 567.193 115.511 568.867 116.602C569.573 117.062 570.219 117.252 571.43 117.47L571.968 117.569C572.951 117.752 573.416 117.868 574.001 118.097L574.455 118.281C574.912 118.456 575.45 118.584 576.229 118.72L576.785 118.812C576.788 118.812 578.107 119.013 578.853 119.132L579.66 119.27C580.431 119.41 581.114 119.56 581.764 119.736C582.399 119.907 582.987 120.101 583.533 120.321L583.879 120.456C584.433 120.665 584.894 120.794 585.709 120.986L586.464 121.161C586.809 121.242 587.055 121.306 587.275 121.374L587.532 121.46C588.499 121.807 589.317 122.414 590.344 123.685C591.703 125.368 591.703 126.157 590.658 126.88C589.976 127.351 589.806 128.285 590.277 128.967C590.748 129.648 591.682 129.818 592.364 129.347C595.03 127.504 595.03 124.712 592.678 121.8C591.317 120.115 590.05 119.177 588.545 118.637C588.244 118.529 587.967 118.445 587.623 118.356L587.172 118.246L586.236 118.028C585.652 117.888 585.31 117.788 584.923 117.643L584.253 117.383C583.711 117.18 583.143 117.001 582.548 116.84C581.663 116.6 580.746 116.408 579.689 116.229L576.813 115.776C576.13 115.659 575.712 115.558 575.472 115.457C574.542 115.064 573.973 114.899 572.805 114.674L571.763 114.481C571.069 114.35 570.751 114.248 570.505 114.089C569.31 113.309 562.905 102.69 562.496 101.298C562.344 100.78 562.207 100.232 562.06 99.5721L561.642 97.6147C561.605 97.4479 561.569 97.2946 561.535 97.1501L561.431 96.7393C560.89 94.6944 561.646 90.5464 562.797 89.7174C563.958 88.8807 565.466 88.6222 569.169 88.5165L571.283 88.4644C572.045 88.4424 572.565 88.4188 573.179 88.3787L573.725 88.3389C575.339 88.2087 576.729 87.9787 578.029 87.595C580.539 86.8541 582.391 85.2409 583.501 82.835C583.848 82.0828 583.52 81.1916 582.768 80.8445Z" fill="#00160A"/>
<path fill-rule="evenodd" clip-rule="evenodd" d="M232.333 236.796C232.885 235.715 233.356 234.772 234.012 233.984C234.676 233.186 235.515 232.532 236.305 231.847C236.384 231.779 236.819 231.949 236.817 231.994C236.804 232.232 236.777 232.543 236.624 232.69C235.448 233.807 235.351 235.292 234.991 236.754C234.597 238.356 234.996 239.61 235.726 240.946C236.213 241.836 236.568 242.814 236.873 243.787C237.514 245.837 238.147 247.894 238.66 249.978C239.005 251.384 239.324 252.84 239.337 254.276C239.405 261.517 239.366 268.758 239.369 276C239.371 279.699 239.319 283.401 239.427 287.097C239.463 288.303 240.116 289.493 240.137 290.696C240.153 291.669 239.666 292.657 239.344 293.619C239.298 293.757 238.803 293.917 238.732 293.847C238.223 293.345 237.371 292.793 237.363 292.246C237.297 287.992 237.46 283.735 237.417 279.481C237.398 277.561 236.957 275.648 236.909 273.727C236.797 269.251 237.299 264.695 236.61 260.32C236.072 256.901 236.202 253.647 236.255 250.286C236.267 249.531 234.163 248.59 232.906 248.008C231.274 247.251 230.237 248.263 229.464 249.62C229.393 249.743 229.101 249.803 229.1 249.893C229.063 257.799 229.012 265.705 229.043 273.611C229.052 275.899 229.315 278.186 229.428 280.474C229.471 281.331 229.38 281.777 230.696 281.576C232.921 281.237 235.844 284.526 235.2 286.404C234.703 287.85 233.805 289.157 233.307 290.602C232.182 293.864 229.725 297.019 230.809 300.562C231.632 303.253 233.414 305.768 235.233 307.982C235.958 308.863 237.942 308.677 239.328 309.066C239.796 309.199 240.341 309.525 240.554 309.923C240.691 310.183 240.393 310.862 240.091 311.094C239.909 311.235 239.348 310.87 238.954 310.742C238.308 310.531 237.672 310.221 237.009 310.142C233.891 309.782 233.718 309.592 232.301 306.12C231.793 304.875 230.841 303.815 230.302 302.579C229.793 301.413 229.505 300.14 229.222 298.89C228.949 297.685 228.587 296.436 228.667 295.233C228.76 293.816 229.172 292.387 229.657 291.039C230.09 289.836 230.833 288.747 231.373 287.577C231.435 287.441 231.115 287.051 230.891 286.892C230.77 286.806 230.438 286.898 230.271 287.012C228.657 288.113 227.888 289.889 226.867 291.446C226.531 291.958 226.634 292.759 226.54 293.428C226.401 294.429 226.132 295.433 226.155 296.431C226.197 298.275 225.991 300.283 226.642 301.924C227.996 305.334 229.308 308.934 232.07 311.47C233.087 312.406 234.775 312.853 236.47 313.08C238.702 313.378 240.818 312.733 243.006 312.981C244.007 313.097 245.094 312.224 246.141 312.228C247.417 312.232 248.416 311.532 249.546 311.35C250.836 311.139 251.901 310.585 253.026 310.051C254.861 309.182 256.853 308.561 258.528 307.456C260.018 306.471 261.154 304.96 262.471 303.707C264.503 301.771 266.216 299.633 267.581 297.142C268.182 296.045 269.135 295.212 268.742 293.823C268.681 293.607 268.527 293.261 268.396 293.253C268.107 293.233 267.711 293.295 267.522 293.486C263.217 297.83 259.019 302.285 254.591 306.5C253.397 307.634 251.53 308.077 249.95 308.793C249.07 309.19 248.128 309.447 247.243 309.836C245.318 310.68 243.791 309.505 242.149 308.892C242.226 308.723 242.271 308.437 242.384 308.404C245.058 307.692 247.768 307.1 250.406 306.277C251.626 305.896 252.766 305.159 253.836 304.428C254.872 303.72 255.729 302.756 256.738 302.001C260.51 299.18 263.597 295.86 265.074 291.248C265.473 290 268.159 289.208 269.704 289.669C270.634 289.947 271.698 289.923 272.516 290.373C273.041 290.661 273.603 291.637 273.5 292.182C272.951 295.091 271.127 297.247 269.092 299.317C267.74 300.692 266.905 302.594 265.5 303.893C263.118 306.095 260.632 308.272 257.887 309.968C255.113 311.686 252.032 312.964 248.968 314.127C246.773 314.959 244.41 315.576 242.079 315.77C238.1 316.105 234.184 315.787 230.655 313.424C228.444 311.942 226.953 309.89 225.803 307.672C225.157 306.43 225.778 304.56 225.212 303.234C224.092 300.606 223.885 297.909 224.121 295.199C224.281 293.351 225.427 291.556 225.433 289.735C225.441 287.689 226.946 286.685 227.602 285.141C227.734 284.829 227.381 284.344 227.379 283.938C227.361 279.318 227.37 274.697 227.366 270.076C227.365 267.75 227.51 265.408 227.284 263.103C227.152 261.764 226.322 260.507 225.992 259.167C225.825 258.485 226.11 257.703 226.118 256.965C226.141 254.873 225.936 252.758 226.174 250.693C226.473 248.094 227.197 245.547 227.589 242.954C227.809 241.506 227.73 240.013 227.781 238.539C227.881 235.641 228.474 232.78 230.493 230.696C232.068 229.07 233.953 227.533 236.568 227.526C237.21 227.524 238.086 226.363 238.443 226.545C239.254 226.958 240.042 227.785 240.361 228.625C240.503 228.998 239.594 229.968 238.973 230.39C237.869 231.139 236.579 231.113 235.231 231.055C233.017 230.959 230.997 233.857 230.143 236.4C229.443 238.487 230.514 240.346 230.037 242.334C229.895 242.925 231.062 243.846 231.673 244.579C231.737 244.656 232.304 244.48 232.304 244.417C232.319 243.163 232.404 241.891 232.224 240.659C232.054 239.493 231.269 238.322 232.725 237.439C232.595 237.294 232.464 237.149 232.333 236.796Z" fill="#FFB61D"/>
<path fill-rule="evenodd" clip-rule="evenodd" d="M314.27 331.562C313.881 333.676 313.467 335.58 313.125 337.492C313.069 337.81 313.416 338.179 313.429 338.53C313.533 341.539 312.983 344.514 312.887 347.523C312.841 348.967 312.969 350.548 312.572 351.967C312.081 353.726 312.79 356.035 310.539 357.069C309.671 357.467 308.395 358.22 307.888 357.897C306.906 357.272 305.275 356.929 305.533 355C305.759 353.304 305.284 351.491 305.646 349.848C306.263 347.038 305.608 344.204 306.092 341.473C306.386 339.817 306.067 338.166 306.451 336.602C307.072 334.078 306.978 331.508 307.312 328.979C307.629 326.575 307.821 324.162 308.135 321.771C308.46 319.296 308.648 316.813 308.984 314.359C309.284 312.162 309.233 309.836 309.866 307.804C310.427 306.002 309.112 303.926 310.868 302.371C311.11 302.157 310.479 301.143 310.576 300.553C311.375 295.646 310.75 290.709 311 285.795C311.018 285.448 311.566 284.95 311.959 284.833C313.197 284.467 314.47 284.189 315.749 284.016C316.045 283.975 316.713 284.488 316.709 284.737C316.633 288.955 316.389 293.172 316.369 297.389C316.354 300.434 316.69 303.479 316.721 306.525C316.736 308.007 316.376 309.492 316.251 310.982C316.121 312.53 316.604 314.003 315.693 315.654C315.006 316.896 315.609 318.816 315.494 320.421C315.279 323.426 315.097 326.447 314.573 329.401C314.463 330.026 314.228 330.672 314.27 331.562M308.477 353.287C309.156 354.313 309.12 354.284 309.747 353.502C310.485 352.579 309.925 351.504 310.166 350.568C310.814 348.052 310.653 345.474 310.959 342.937C311.205 340.901 311.555 338.87 311.665 336.829C311.807 334.193 311.534 331.52 311.855 328.913C312.129 326.674 312.043 324.427 312.836 322.151C313.64 319.842 313.295 317.132 313.437 314.595C313.472 313.974 313.209 313.209 313.485 312.757C314.426 311.222 313.584 309.621 313.815 308.073C313.846 307.866 313.32 307.581 313.052 307.328C312.898 307.622 312.649 307.899 312.604 308.21C312.307 310.233 311.972 312.253 311.807 314.289C311.588 316.991 311.511 319.71 311.375 322.42C311.364 322.627 311.459 322.9 311.36 323.033C310.239 324.535 311.108 326.327 310.6 328.011C309.957 330.138 310.245 332.546 310.132 334.835C310.129 334.905 310.144 334.976 310.13 335.042C309.791 336.643 309.365 338.236 309.135 339.854C308.951 341.154 309.711 342.342 308.659 343.852C307.86 345.002 308.56 347.146 308.448 348.834C308.381 349.857 307.975 350.854 307.859 351.88C307.824 352.182 308.258 352.542 308.477 353.287M313.856 296.594C313.9 295.446 313.948 294.298 313.985 293.151C313.991 292.988 313.951 292.684 313.93 292.684C313.669 292.681 313.191 292.683 313.177 292.759C312.967 293.906 312.775 295.062 312.703 296.223C312.692 296.395 313.318 296.607 313.856 296.594Z" fill="#00160A"/>
<path fill-rule="evenodd" clip-rule="evenodd" d="M233.058 302.284C232.966 301.49 232.977 300.801 232.988 300.111C233.553 300.273 234.184 300.325 234.672 300.617C237.237 302.153 239.754 303.77 242.318 305.307C242.766 305.575 243.356 305.637 243.892 305.714C244.304 305.773 244.734 305.704 245.156 305.692C244.752 306.039 244.269 306.745 243.957 306.674C242.002 306.243 239.675 307.833 238.049 305.634C238.017 305.591 237.837 305.604 237.768 305.652C237.037 306.163 236.218 307.167 235.401 306.195C234.467 305.084 233.892 303.67 233.058 302.284Z" fill="#00160A"/>
</svg>
